<?xml version="1.0" encoding="UTF-8"?>
<svg version="1.1" xmlns="http://www.w3.org/2000/svg" width="867" height="594">
<path d="M0 0 C8.95277196 0.98718778 16.49937135 3.32232799 22.88671875 9.9609375 C27.41742825 15.68740326 29.50985206 21.18111736 29.3125 28.5078125 C28.26481316 36.86311506 24.51445402 43.78370637 19 50 C18.4328125 50.66 17.865625 51.32 17.28125 52 C10.93450613 58.8504537 3.3248468 64.05959325 -4.203125 69.51171875 C-34.40151521 90.78472283 -34.40151521 90.78472283 -50.4375 122.5625 C-50.85173293 125.77607546 -51 128.74794255 -51 132 C-38.36303941 134.06888293 -27.9348968 131.6339432 -17 125 C-16.10152344 124.27554688 -15.20304688 123.55109375 -14.27734375 122.8046875 C-12 121 -12 121 -10 121 C-9.731875 120.43796875 -9.46375 119.8759375 -9.1875 119.296875 C-7.9196021 116.84449354 -6.51027658 114.56072317 -5 112.25 C-4.484375 111.45078125 -3.96875 110.6515625 -3.4375 109.828125 C-2.963125 109.22484375 -2.48875 108.6215625 -2 108 C-1.34 108 -0.68 108 0 108 C-0.67514558 128.01806643 -6.76661339 145.62014053 -21.38916016 159.61279297 C-28.37812405 165.63147936 -36.51136648 169.28712685 -44.875 173 C-56.78855691 178.32573441 -67.89995041 183.65316657 -78 192 C-78.82113281 192.61746094 -79.64226562 193.23492187 -80.48828125 193.87109375 C-87.95558274 200.20029952 -93.07756406 209.46932898 -97.8828125 217.89453125 C-102.65581061 224.89551556 -108.23131981 229.17659417 -115.75 232.9375 C-116.57274414 233.3593457 -117.39548828 233.78119141 -118.24316406 234.21582031 C-126.23953606 238.24895815 -134.43662224 241.75604141 -142.74414062 245.09179688 C-144.97589325 245.99029469 -147.19941682 246.90690912 -149.421875 247.828125 C-159.58340444 252 -159.58340444 252 -163 252 C-170.91838843 235.72933884 -170.91838843 235.72933884 -173 227 C-173.16628906 226.3719043 -173.33257812 225.74380859 -173.50390625 225.09667969 C-178.55999437 204.77301118 -174.24601351 183.81348536 -166 165 C-165.35611328 163.52660156 -165.35611328 163.52660156 -164.69921875 162.0234375 C-158.94382331 149.7344523 -150.74735976 139.39773526 -141.4453125 129.62109375 C-138.97134665 127.06884742 -138.97134665 127.06884742 -136.9921875 124.28515625 C-134.8009484 121.77167611 -133.15328053 120.96350239 -130 120 C-130.2165625 120.69480469 -130.433125 121.38960938 -130.65625 122.10546875 C-132.64671492 129.37619477 -133.32696119 136.1700935 -133.375 143.6875 C-133.39530273 144.98627075 -133.39530273 144.98627075 -133.41601562 146.3112793 C-133.37136151 152.85372688 -132.85501145 160.5563604 -128.52099609 165.78393555 C-127.06421057 167.20815523 -127.06421057 167.20815523 -125 167 C-125 167.66 -125 168.32 -125 169 C-123.35 169.33 -121.7 169.66 -120 170 C-120.33 168.7625 -120.66 167.525 -121 166.25 C-125.13996622 147.15850112 -118.07274863 127.14602354 -108 111 C-105.80927082 107.86891065 -103.45742729 104.92475854 -101 102 C-100.41734375 101.27167969 -99.8346875 100.54335937 -99.234375 99.79296875 C-85.2830408 83.05722962 -64.40484189 73.05949255 -45.41015625 63.30078125 C-30.64112526 55.71222433 -16.15178048 48.21066501 -3 38 C-2.11957031 37.33226562 -1.23914063 36.66453125 -0.33203125 35.9765625 C4.70737958 31.70530307 8.13646145 26.54188484 9.0625 19.9375 C9.25568558 15.15244182 8.56917561 11.09063776 6 7 C4.11164336 5.11643614 2.13684016 3.61450145 0 2 C0 1.34 0 0.68 0 0 Z " fill="#B92421" transform="translate(402,46)"/>
<path d="M0 0 C4.38718839 3.97122956 7.20838047 8.21134385 10.0625 13.375 C10.50005615 14.16503418 10.9376123 14.95506836 11.38842773 15.76904297 C21.77867748 35.23733652 22.72145211 58.95771897 16.67675781 79.95507812 C15.03367935 84.91987797 12.64828853 89.4979095 10 94 C12.54696913 92.7809637 15.0871675 91.55030447 17.625 90.3125 C18.33785156 89.97283203 19.05070313 89.63316406 19.78515625 89.28320312 C30.86479938 83.84502966 36.85238543 75.61332079 41 64 C41.77659179 60.68361114 42.42586534 57.35699911 43 54 C43.66 54 44.32 54 45 54 C45.79874865 56.14320727 46.58861858 58.28972416 47.375 60.4375 C47.81585937 61.63246094 48.25671875 62.82742187 48.7109375 64.05859375 C51.24983889 71.49590362 52.36450204 78.58519194 52.3125 86.4375 C52.31048584 87.26499756 52.30847168 88.09249512 52.30639648 88.94506836 C52.19358909 95.81956476 51.09158784 101.81682433 48 108 C49.0828125 108.07863281 50.165625 108.15726562 51.28125 108.23828125 C57.00951917 108.95934852 62.15317526 111.09232928 67.5 113.1875 C69.63777957 114.01364542 71.77580104 114.83916513 73.9140625 115.6640625 C75.47108887 116.26782715 75.47108887 116.26782715 77.05957031 116.88378906 C79.61762744 117.85484828 82.18230094 118.77055999 84.7734375 119.6484375 C93.09790968 122.49185488 99.46461374 125.98024972 106 132 C107.37311737 133.12729708 108.74792872 134.25253633 110.125 135.375 C111.07375 136.24125 112.0225 137.1075 113 138 C113 138.66 113 139.32 113 140 C114.22041992 139.96986816 115.44083984 139.93973633 116.69824219 139.90869141 C122.80418016 139.91300372 128.77855856 140.69271601 134.828125 141.4609375 C136.05295593 141.61156647 137.27778687 141.76219543 138.53973389 141.91738892 C142.44381015 142.39813624 146.34694564 142.88603107 150.25 143.375 C155.35892128 144.01152556 160.46829893 144.64421726 165.578125 145.2734375 C166.81115356 145.42592957 168.04418213 145.57842163 169.3145752 145.73553467 C177.85023655 146.77707589 186.39024679 147.67268963 194.95977783 148.3855896 C200.89814972 148.89814972 200.89814972 148.89814972 202 150 C203.82860081 167.98623745 197.71235147 184.44545569 186.9375 198.625 C178.63447691 208.29309638 163.08774677 222.228726 150 224 C148.17329368 223.99589504 146.3462066 223.98704662 144.52026367 223.93408203 C117.42022154 223.1877283 88.15791938 231.81775877 67 249 C67.58378418 248.76289307 68.16756836 248.52578613 68.76904297 248.28149414 C71.46583193 247.19505823 74.17017224 246.12875622 76.875 245.0625 C77.7928125 244.68931641 78.710625 244.31613281 79.65625 243.93164062 C85.80345295 241.52903665 91.40213373 240.27887149 98 240 C97 243 97 243 94.296875 244.47265625 C93.12640625 244.99730469 91.9559375 245.52195312 90.75 246.0625 C64.34859274 258.60732068 51.08046937 283.00310465 38.9375 308.375 C35.93339139 314.43287192 32.13601878 319.66983431 28 325 C27.41863281 325.78632813 26.83726562 326.57265625 26.23828125 327.3828125 C17.63817164 338.68794574 7.2150835 349.61346715 -5 357 C-5.66 356.67 -6.32 356.34 -7 356 C-6.05253906 354.7934375 -6.05253906 354.7934375 -5.0859375 353.5625 C1.0300967 345.59111792 6.37573999 337.30459059 11.4375 328.625 C12.32332764 327.11099609 12.32332764 327.11099609 13.22705078 325.56640625 C16.51965858 319.84603012 19.4798953 314.10211029 22 308 C21.58451904 308.44166504 21.16903809 308.88333008 20.7409668 309.33837891 C7.44089732 323.35428534 -8.00775943 338.13043561 -26 346 C-26.66 345.67 -27.32 345.34 -28 345 C-21.94842668 338.80357519 -15.71692995 332.95837282 -8.9375 327.5625 C-5.22904591 324.32746558 -2.17008193 320.75420451 1 317 C1.82628906 316.04996094 2.65257812 315.09992188 3.50390625 314.12109375 C12.82039722 303.36120277 21.30645986 291.97854984 29 280 C23.29326071 284.5496642 17.78604353 289.15530602 12.5 294.1875 C4.61939304 301.5794382 -4.19338842 307.77070335 -13 314 C-13.64308105 314.45761719 -14.28616211 314.91523438 -14.94873047 315.38671875 C-32.14064799 327.52988244 -50.84786766 337.35137081 -70 346 C-70.495 344.515 -70.495 344.515 -71 343 C-69.9584375 342.27296875 -68.916875 341.5459375 -67.84375 340.796875 C-48.43036436 327.33158013 -48.43036436 327.33158013 -30.3671875 312.15234375 C-27.76193022 309.78353721 -25.05714094 307.58038222 -22.3125 305.375 C-18.56941123 302.34688324 -15.09903511 299.23575067 -11.7668457 295.76513672 C-10.07898964 294.07891324 -8.33411987 292.5462507 -6.51171875 291.0078125 C-0.89346888 286.12624493 4.27646379 280.79451276 9.5 275.5 C21.25814861 263.5820836 21.25814861 263.5820836 27.26367188 258.51757812 C29.26915787 256.76475178 31.13356713 254.89921325 33 253 C29.37149784 255.18172879 25.74788294 257.37145498 22.125 259.5625 C21.11179687 260.17158203 20.09859375 260.78066406 19.0546875 261.40820312 C12.51631589 265.36894746 6.21770149 269.55585721 0 274 C-1.35266538 274.94096392 -2.70675596 275.87988353 -4.0625 276.81640625 C-12.5893557 282.74994381 -20.88661613 288.9074316 -29.0234375 295.36743164 C-36.66542042 301.410677 -36.66542042 301.410677 -40 303 C-40.99 302.67 -41.98 302.34 -43 302 C-31.65391705 289.50908706 -20.2694632 277.47897314 -7 267 C-5.2913182 265.56291422 -3.5829933 264.125404 -1.875 262.6875 C37.85382992 230.3096259 84.23108597 210.57010078 135.4296875 206.23046875 C136.16250443 206.16793411 136.89532135 206.10539948 137.65034485 206.04096985 C141.28423176 205.73653507 144.91787495 205.45694048 148.55639648 205.21411133 C158.74433674 204.47662192 168.25813594 203.1386634 175.33203125 195.140625 C175.88246094 194.43421875 176.43289063 193.7278125 177 193 C177.96486328 191.78570312 177.96486328 191.78570312 178.94921875 190.546875 C185.19561844 181.47502473 184.97597678 172.59489421 185 162 C183.69353516 161.90348145 182.38707031 161.80696289 181.04101562 161.70751953 C165.75947868 160.51392272 150.60680559 158.66529659 135.44189453 156.44335938 C132.78615071 156.06044276 130.13205006 155.68938306 127.47216797 155.33886719 C123.56933862 154.8244188 119.67570342 154.25426711 115.78125 153.6796875 C114.59897827 153.53038788 113.41670654 153.38108826 112.1986084 153.2272644 C106.47178162 152.33119021 102.83387006 151.51777001 98.95507812 147.04345703 C98.46785278 146.3642923 97.98062744 145.68512756 97.4786377 144.98538208 C92.99987501 138.97170124 86.64231095 135.75979884 79.35375977 134.56689453 C75.09266491 133.96578993 70.83197544 133.3749087 66.56054688 132.8515625 C53.9847958 131.05611347 45.00567687 125.09745429 36.2109375 116.1875 C30.62693834 111.38214614 25.46185251 111.68797283 18.4375 112.125 C15.28521083 112.3662071 12.14235612 112.65291351 9 113 C9 112.34 9 111.68 9 111 C11.91426956 109.6821304 14.83180794 108.37165825 17.75 107.0625 C18.575 106.68931641 19.4 106.31613281 20.25 105.93164062 C21.04921875 105.57392578 21.8484375 105.21621094 22.671875 104.84765625 C23.4050293 104.51773682 24.13818359 104.18781738 24.89355469 103.84790039 C26.91492307 103.03424573 28.87566863 102.47230688 31 102 C31 101.34 31 100.68 31 100 C30.12601563 100.39832031 29.25203125 100.79664062 28.3515625 101.20703125 C20.41676108 104.67440379 13.02153748 106.70614282 4.4453125 107.87719727 C-1.19765034 108.70441545 -5.80969847 110.3329763 -10.8359375 113.109375 C-13.36885001 114.15180109 -14.47690531 113.94472039 -17 113 C-16.34644531 112.34257812 -16.34644531 112.34257812 -15.6796875 111.671875 C0.84037337 94.0790829 1.83904497 68.86836715 3 46 C2.34 46 1.68 46 1 46 C0.773125 46.804375 0.54625 47.60875 0.3125 48.4375 C-3.03826068 57.53242184 -8.31496892 64.06096083 -15 71 C-15.61230469 71.64066406 -16.22460938 72.28132813 -16.85546875 72.94140625 C-22.05948208 78.26450455 -27.67269382 83.1096318 -33.4375 87.8125 C-36.03231972 89.73971393 -36.03231972 89.73971393 -37 92 C-37.66 92 -38.32 92 -39 92 C-39.26425781 92.58007812 -39.52851563 93.16015625 -39.80078125 93.7578125 C-41.04909202 96.09178768 -42.47527282 97.86107604 -44.1875 99.875 C-53.49906601 111.71371336 -57.7623082 125.1476984 -59 140 C-59.66 140 -60.32 140 -61 140 C-66.82918149 112.65836299 -66.82918149 112.65836299 -61 101 C-81.63027928 110.43784239 -100.1161558 121.03890637 -118 135 C-118 131.0646284 -116.85270558 130.46663001 -114.1171875 127.71875 C-113.28646729 126.8819873 -112.45574707 126.04522461 -111.59985352 125.18310547 C-110.70065186 124.29768066 -109.8014502 123.41225586 -108.875 122.5 C-107.96226318 121.59523926 -107.04952637 120.69047852 -106.10913086 119.75830078 C-99.61068482 113.39525094 -92.94597742 107.56188215 -85.61474609 102.19140625 C-83.38749203 100.54807395 -81.20542433 98.84886341 -79.01953125 97.15112305 C-74.40533659 93.57060115 -69.7445017 90.05384697 -65.0625 86.5625 C-33.74699999 63.1170796 -6.94437501 40.47839647 0 0 Z M36 250 C35.67 250.66 35.34 251.32 35 252 C35.99 251.67 36.98 251.34 38 251 C37.34 250.67 36.68 250.34 36 250 Z M64 250 C63.67 250.66 63.34 251.32 63 252 C63.99 251.67 64.98 251.34 66 251 C65.34 250.67 64.68 250.34 64 250 Z " fill="#B7B6B7" transform="translate(496,19)"/>
<path d="M0 0 C0.33 0.99 0.66 1.98 1 3 C-27.13180388 21.21715667 -57.57489581 36.84801246 -88.25683594 50.33398438 C-89.25360352 50.77806641 -90.25037109 51.22214844 -91.27734375 51.6796875 C-92.14609131 52.05851074 -93.01483887 52.43733398 -93.90991211 52.82763672 C-96.30255558 53.96165359 -96.30255558 53.96165359 -98 57 C-97.84298574 59.61915122 -97.84298574 59.61915122 -97 62 C-94.16214282 63.41892859 -92.16124644 63.23855366 -89 63 C-85.7197507 61.79297345 -85.7197507 61.79297345 -82.35546875 60.02734375 C-81.72185425 59.71317505 -81.08823975 59.39900635 -80.4354248 59.07531738 C-79.0659491 58.39534588 -77.69898515 57.71029679 -76.33432007 57.02072144 C-72.63238382 55.15283472 -68.90867429 53.3291734 -65.1875 51.5 C-64.03842415 50.9335099 -64.03842415 50.9335099 -62.86613464 50.35557556 C-43.33493673 40.74912255 -23.37763888 32.04805341 -3.3125 23.625 C-2.53256683 23.29563446 -1.75263367 22.96626892 -0.94906616 22.62692261 C1.26406933 21.69451194 3.48085555 20.77145525 5.69921875 19.8515625 C6.35087006 19.5762822 7.00252136 19.30100189 7.67391968 19.01737976 C11.43399248 17.47427672 14.96820133 16.51002118 19 16 C17.49294865 20.35260226 14.20867666 22.1996299 10.5 24.5625 C9.83274902 24.99667236 9.16549805 25.43084473 8.47802734 25.87817383 C1.27554918 30.53237757 -6.04189161 35.00048531 -13.38769531 39.42382812 C-16.23974532 41.14465381 -19.08465189 42.87697924 -21.9296875 44.609375 C-35.42330502 52.79798053 -49.09680956 60.53274654 -63 68 C-66.42297738 69.84280415 -69.83882837 71.69794663 -73.25 73.5625 C-74.00724365 73.96831299 -74.7644873 74.37412598 -75.54467773 74.79223633 C-78.87704001 76.61931021 -80.85748851 77.78623276 -83 81 C-83.16713569 83.62531524 -83.16713569 83.62531524 -83 86 C-79.32933827 87.70144654 -77.65520646 88.22182291 -73.7578125 86.90234375 C-72.53582949 86.26824287 -71.32554909 85.61130137 -70.125 84.9375 C-69.43704346 84.57317871 -68.74908691 84.20885742 -68.0402832 83.83349609 C-65.68147363 82.57680616 -63.34066903 81.2901362 -61 80 C-59.28314521 79.06531595 -57.56567302 78.13176527 -55.84765625 77.19921875 C-52.96192407 75.63249658 -50.07690574 74.06460039 -47.19506836 72.49072266 C-36.43402002 66.63645992 -25.53340849 61.06040956 -14.62915039 55.47900391 C-13.14987422 54.72173461 -11.67062571 53.96441131 -10.19140625 53.20703125 C-9.47710953 52.84134033 -8.76281281 52.47564941 -8.02687073 52.09887695 C-1.45778679 48.73113884 5.07839548 45.30231178 11.58520508 41.81567383 C14.99408459 39.99996192 18.37632405 38.34313858 22 37 C22 41 22 41 19.7890625 43.33984375 C18.74612884 44.21985094 17.69028174 45.08468226 16.625 45.9375 C15.76237549 46.64604126 15.76237549 46.64604126 14.88232422 47.36889648 C3.16766965 56.85093751 -9.31284737 65.34745029 -21.90234375 73.61328125 C-24.26708487 75.17656448 -26.61837786 76.75894809 -28.96875 78.34375 C-92.13697126 120.8856133 -92.13697126 120.8856133 -117.22949219 116.62109375 C-119.45597105 116.11907366 -121.66445209 115.567856 -123.875 115 C-139.7657387 111.25985279 -151.13505291 114.45945673 -166.11450195 120.65307617 C-203.2802465 136.006383 -242.76435143 145.62921397 -282 154 C-240.15019775 152.47558579 -199.89937467 144.76194017 -159.65283203 133.33349609 C-157.54123672 132.73629115 -155.42715783 132.14874694 -153.3125 131.5625 C-152.15363281 131.23378906 -150.99476563 130.90507812 -149.80078125 130.56640625 C-147 130 -147 130 -144 131 C-172.30934792 145.99898784 -205.51898673 153.47605433 -237 158 C-238.04446289 158.15098145 -239.08892578 158.30196289 -240.16503906 158.45751953 C-280.3601343 164.00394009 -322.30505828 162.25973437 -362 154 C-362 153.67 -362 153.34 -362 153 C-360.7939209 152.84966309 -359.5878418 152.69932617 -358.34521484 152.54443359 C-334.38381391 149.53860149 -310.53595271 146.51816482 -287 141 C-285.09371826 140.55479004 -285.09371826 140.55479004 -283.14892578 140.10058594 C-243.36275186 130.67288651 -203.08710855 117.39521173 -167 98 C-166.02933594 97.47921875 -165.05867187 96.9584375 -164.05859375 96.421875 C-154.879419 91.22353461 -149.62372751 85.16810965 -145.125 75.6875 C-127.75115847 41.02299313 -83.40020972 30.45581554 -49.5569458 17.82498169 C-43.30153401 15.49013002 -37.05411383 13.13460621 -30.80859375 10.7734375 C-28.04348034 9.72982531 -25.278177 8.68671867 -22.51275635 7.6439209 C-20.71842932 6.96684544 -18.92444063 6.28887265 -17.13079834 5.60998535 C-14.63655262 4.66651918 -12.14076321 3.72725848 -9.64453125 2.7890625 C-8.52382484 2.36359634 -8.52382484 2.36359634 -7.38047791 1.92953491 C-2.22829971 0 -2.22829971 0 0 0 Z " fill="#C7C7C7" transform="translate(464,193)"/>
<path d="M0 0 C7.22238725 2.47624706 10.48708314 6.31595033 13.984375 12.87890625 C17.15730895 19.50545677 16.67227894 25.7087923 14.375 32.5625 C12.30036019 37.75994258 9.70244994 41.82632916 6 46 C5.4328125 46.66 4.865625 47.32 4.28125 48 C-2.06549387 54.8504537 -9.6751532 60.05959325 -17.203125 65.51171875 C-47.40151521 86.78472283 -47.40151521 86.78472283 -63.4375 118.5625 C-63.85173293 121.77607546 -64 124.74794255 -64 128 C-51.36303941 130.06888293 -40.9348968 127.6339432 -30 121 C-29.10152344 120.27554688 -28.20304688 119.55109375 -27.27734375 118.8046875 C-25 117 -25 117 -23 117 C-22.731875 116.43796875 -22.46375 115.8759375 -22.1875 115.296875 C-20.9196021 112.84449354 -19.51027658 110.56072317 -18 108.25 C-17.484375 107.45078125 -16.96875 106.6515625 -16.4375 105.828125 C-15.963125 105.22484375 -15.48875 104.6215625 -15 104 C-14.34 104 -13.68 104 -13 104 C-13.67514558 124.01806643 -19.76661339 141.62014053 -34.38916016 155.61279297 C-41.37812405 161.63147936 -49.51136648 165.28712685 -57.875 169 C-69.78855691 174.32573441 -80.89995041 179.65316657 -91 188 C-91.82113281 188.61746094 -92.64226562 189.23492187 -93.48828125 189.87109375 C-100.95558274 196.20029952 -106.07756406 205.46932898 -110.8828125 213.89453125 C-115.65604982 220.89586644 -121.2313813 225.17583961 -128.75 228.9375 C-129.56549316 229.35644531 -130.38098633 229.77539062 -131.22119141 230.20703125 C-139.33808607 234.30662986 -147.67757422 237.88088554 -156.12402344 241.2421875 C-157.7152746 241.88498339 -159.28614191 242.57788294 -160.8515625 243.28125 C-163 244 -163 244 -166 243 C-165.61457031 242.45214844 -165.22914063 241.90429688 -164.83203125 241.33984375 C-163.69416775 238.95284055 -163.69416775 238.95284055 -165.01171875 236.44140625 C-165.56472656 235.49136719 -166.11773437 234.54132813 -166.6875 233.5625 C-175.10549412 217.59335326 -175.01609275 199.08433066 -170 182 C-164.94833119 165.94833119 -164.94833119 165.94833119 -162 163 C-161.69707031 164.05058594 -161.39414063 165.10117188 -161.08203125 166.18359375 C-158.79083675 173.93634578 -156.52957961 181.21320514 -152 188 C-151.13375 189.3303125 -151.13375 189.3303125 -150.25 190.6875 C-145.77132591 195.29058171 -139.0686793 200.47521812 -132.546875 201.31640625 C-129.36011705 200.92050534 -127.81867268 199.8472158 -125.25 197.9375 C-124.37859375 197.29296875 -123.5071875 196.6484375 -122.609375 195.984375 C-121.74828125 195.32953125 -120.8871875 194.6746875 -120 194 C-119.24203125 193.44828125 -118.4840625 192.8965625 -117.703125 192.328125 C-103.57151673 181.80458693 -96.4401535 172.21944638 -93.81079102 154.89257812 C-93.52972614 152.92990189 -93.26330279 150.96513793 -93 149 C-92.34 149 -91.68 149 -91 149 C-90.82597656 148.20722656 -90.82597656 148.20722656 -90.6484375 147.3984375 C-89.83449051 144.38781428 -88.74453177 141.53578261 -87.625 138.625 C-87.20476562 137.52414063 -86.78453125 136.42328125 -86.3515625 135.2890625 C-85.04295107 132.10452254 -83.57969135 129.05776513 -82 126 C-81.01 126 -80.02 126 -79 126 C-78.9175 124.72125 -78.835 123.4425 -78.75 122.125 C-76.14666726 99.8404717 -56.77399439 82.2916388 -40.22680664 69.16967773 C-36.42888462 66.18471399 -32.60483259 63.2339176 -28.77539062 60.28955078 C-7.2397914 45.26834982 -7.2397914 45.26834982 5 23 C5.97268274 14.6627194 2.54642601 8.81963902 -2 2 C-1.34 2 -0.68 2 0 2 C0 1.34 0 0.68 0 0 Z " fill="#851716" transform="translate(415,50)"/>
<path d="M0 0 C4.38718839 3.97122956 7.20838047 8.21134385 10.0625 13.375 C10.50005615 14.16503418 10.9376123 14.95506836 11.38842773 15.76904297 C21.77867748 35.23733652 22.72145211 58.95771897 16.67675781 79.95507812 C15.03367935 84.91987797 12.64828853 89.4979095 10 94 C12.54696913 92.7809637 15.0871675 91.55030447 17.625 90.3125 C18.33785156 89.97283203 19.05070313 89.63316406 19.78515625 89.28320312 C30.86479938 83.84502966 36.85238543 75.61332079 41 64 C41.77659179 60.68361114 42.42586534 57.35699911 43 54 C43.66 54 44.32 54 45 54 C45.79874865 56.14320727 46.58861858 58.28972416 47.375 60.4375 C47.81585937 61.63246094 48.25671875 62.82742187 48.7109375 64.05859375 C51.24983889 71.49590362 52.36450204 78.58519194 52.3125 86.4375 C52.31048584 87.26499756 52.30847168 88.09249512 52.30639648 88.94506836 C52.19358909 95.81956476 51.09158784 101.81682433 48 108 C48.969375 108.12375 49.93875 108.2475 50.9375 108.375 C51.948125 108.58125 52.95875 108.7875 54 109 C54.33 109.66 54.66 110.32 55 111 C52.36 110.67 49.72 110.34 47 110 C46.67 110.99 46.34 111.98 46 113 C40.125 111.125 40.125 111.125 39 110 C38.44460331 102.35512787 39.33194879 94.61101204 40 87 C39.2575 88.051875 38.515 89.10375 37.75 90.1875 C34.09800961 94.53468856 29.75710873 96.06662625 24.51171875 97.95703125 C21.85852659 98.7374975 21.85852659 98.7374975 21 101 C20.34 101 19.68 101 19 101 C19 101.66 19 102.32 19 103 C18.34 103 17.68 103 17 103 C16.67 103.99 16.34 104.98 16 106 C14.82824219 106.15855469 13.65648437 106.31710938 12.44921875 106.48046875 C4.06335808 107.69860655 -3.31327386 108.95399889 -10.8359375 113.109375 C-13.36885001 114.15180109 -14.47690531 113.94472039 -17 113 C-16.34644531 112.34257812 -16.34644531 112.34257812 -15.6796875 111.671875 C0.84037337 94.0790829 1.83904497 68.86836715 3 46 C2.34 46 1.68 46 1 46 C0.773125 46.804375 0.54625 47.60875 0.3125 48.4375 C-3.03826068 57.53242184 -8.31496892 64.06096083 -15 71 C-15.61230469 71.64066406 -16.22460938 72.28132813 -16.85546875 72.94140625 C-22.05948208 78.26450455 -27.67269382 83.1096318 -33.4375 87.8125 C-36.03231972 89.73971393 -36.03231972 89.73971393 -37 92 C-37.66 92 -38.32 92 -39 92 C-39.26425781 92.58007812 -39.52851563 93.16015625 -39.80078125 93.7578125 C-41.04909202 96.09178768 -42.47527282 97.86107604 -44.1875 99.875 C-53.49906601 111.71371336 -57.7623082 125.1476984 -59 140 C-59.66 140 -60.32 140 -61 140 C-66.82918149 112.65836299 -66.82918149 112.65836299 -61 101 C-81.63027928 110.43784239 -100.1161558 121.03890637 -118 135 C-118 131.0646284 -116.85270558 130.46663001 -114.1171875 127.71875 C-113.28646729 126.8819873 -112.45574707 126.04522461 -111.59985352 125.18310547 C-110.70065186 124.29768066 -109.8014502 123.41225586 -108.875 122.5 C-107.96226318 121.59523926 -107.04952637 120.69047852 -106.10913086 119.75830078 C-99.61068482 113.39525094 -92.94597742 107.56188215 -85.61474609 102.19140625 C-83.38749203 100.54807395 -81.20542433 98.84886341 -79.01953125 97.15112305 C-74.40533659 93.57060115 -69.7445017 90.05384697 -65.0625 86.5625 C-33.74699999 63.1170796 -6.94437501 40.47839647 0 0 Z " fill="#BFBFBF" transform="translate(496,19)"/>
<path d="M0 0 C1.79232337 0.30871122 3.58384321 0.62209064 5.375 0.9375 C6.87160156 1.19853516 6.87160156 1.19853516 8.3984375 1.46484375 C11 2 11 2 13 3 C12.77570313 3.56589844 12.55140625 4.13179687 12.3203125 4.71484375 C11.87357455 7.90193763 13.00019961 9.00948841 14.875 11.5625 C18.53135775 16.60487243 19.83603641 20.74483603 19 27 C14.65644799 43.46833355 1.11106054 52.86360293 -11.89404297 62.43603516 C-16.82190171 66.09565295 -21.61774809 69.92903793 -26.42285156 73.74755859 C-27.93241874 74.94633253 -29.44657493 76.13932088 -30.9609375 77.33203125 C-46.72595497 89.93962926 -61.18960404 105.48248329 -65 126 C-65.25686865 129.46031813 -65.25686865 129.46031813 -65 132 C-65.33 131.34 -65.66 130.68 -66 130 C-66.99 130 -67.98 130 -69 130 C-69.11601562 130.72445312 -69.23203125 131.44890625 -69.3515625 132.1953125 C-70.01783246 135.07713077 -70.99918519 137.265121 -72.375 139.875 C-74.43362565 143.86097662 -76.28778394 147.8546348 -78 152 C-79.97265625 151.1015625 -79.97265625 151.1015625 -82 149 C-82.61373335 145.79274832 -82.51072501 142.62996964 -82.4375 139.375 C-82.44458984 138.51003906 -82.45167969 137.64507812 -82.45898438 136.75390625 C-82.30894341 121.35739483 -73.4512674 104.97071409 -63 94 C-60.73572508 91.86891772 -58.44119256 89.93261078 -56 88 C-75.40179528 98.6868107 -93.2268554 115.01813889 -103 135 C-103.51433594 136.00804687 -104.02867187 137.01609375 -104.55859375 138.0546875 C-108.01547861 145.10638779 -110.28937393 151.99809047 -112.140625 159.58984375 C-113.74018515 165.93718927 -113.74018515 165.93718927 -115 169 C-115.99 169.33 -116.98 169.66 -118 170 C-119.85776765 166.86501708 -120.20140476 164.62528568 -120 161 C-120.66 161 -121.32 161 -122 161 C-123.07748846 139.21078895 -114.92203748 118.56960443 -101 102 C-100.41734375 101.27167969 -99.8346875 100.54335937 -99.234375 99.79296875 C-85.2830408 83.05722962 -64.40484189 73.05949255 -45.41015625 63.30078125 C-30.64112526 55.71222433 -16.15178048 48.21066501 -3 38 C-2.11957031 37.33226562 -1.23914063 36.66453125 -0.33203125 35.9765625 C4.70737958 31.70530307 8.13646145 26.54188484 9.0625 19.9375 C9.25568558 15.15244182 8.56917561 11.09063776 6 7 C4.11164336 5.11643614 2.13684016 3.61450145 0 2 C0 1.34 0 0.68 0 0 Z " fill="#D4352E" transform="translate(402,46)"/>
<path d="M0 0 C5.28 0 10.56 0 16 0 C19.88145754 9.43463195 23.30300316 19.02574445 26.75 28.625 C27.35791182 30.31386008 27.96598344 32.00266265 28.57421875 33.69140625 C30.05132256 37.79361002 31.52626114 41.89658621 33 46 C35.21191286 42.68213071 36.51358582 39.29311586 37.8984375 35.5859375 C38.17466949 34.85686188 38.45090149 34.12778625 38.73550415 33.37661743 C39.61889726 31.0440724 40.49737265 28.70971995 41.375 26.375 C48.33259012 7.89486757 48.33259012 7.89486757 52 0 C56.29 0 60.58 0 65 0 C67.7189901 5.2729697 70.09107021 10.52306034 72.1640625 16.078125 C72.44220795 16.81198425 72.72035339 17.54584351 73.00692749 18.30194092 C73.88360819 20.61647658 74.75469684 22.93305959 75.625 25.25 C76.50319438 27.58092646 77.3826293 29.91136604 78.26449585 32.24090576 C78.80995514 33.68245828 79.35321747 35.1248446 79.89395142 36.56817627 C81.11470332 39.80060516 82.36687024 42.95188066 84 46 C84.46055786 44.7013501 84.46055786 44.7013501 84.93041992 43.37646484 C86.0951742 40.09240461 87.26006785 36.80839388 88.42504883 33.52441406 C88.92445161 32.11655555 89.42380253 30.70867864 89.9230957 29.30078125 C91.134145 25.88593932 92.34614032 22.47144037 93.56005859 19.05761719 C94.52729539 16.33637792 95.48782236 13.61289252 96.44384766 10.88769531 C96.89615143 9.60481509 97.3484623 8.32193737 97.80078125 7.0390625 C98.40079956 5.32904053 98.40079956 5.32904053 99.01293945 3.58447266 C100 1 100 1 101 0 C103.53049402 -0.07313567 106.03304837 -0.09247527 108.5625 -0.0625 C109.62887695 -0.05573242 109.62887695 -0.05573242 110.71679688 -0.04882812 C112.47790013 -0.03700864 114.23896036 -0.01907263 116 0 C115.35212887 5.20723195 113.76452822 9.73280528 111.90234375 14.59765625 C111.59205734 15.42135712 111.28177094 16.24505798 110.96208191 17.09371948 C109.95921126 19.75202762 108.94856378 22.4072985 107.9375 25.0625 C107.25005528 26.87882381 106.56304402 28.69531173 105.87646484 30.51196289 C104.53094212 34.0693852 103.18225419 37.62557979 101.83056641 41.18066406 C100.29939207 45.20853469 98.77795103 49.2399197 97.26171875 53.2734375 C96.54975701 55.16156312 95.83754977 57.04959621 95.125 58.9375 C94.81038818 59.77482666 94.49577637 60.61215332 94.17163086 61.47485352 C92.11577485 66.88422515 92.11577485 66.88422515 91 68 C88.64686445 68.07271741 86.29166332 68.08370868 83.9375 68.0625 C82.00197266 68.04896484 82.00197266 68.04896484 80.02734375 68.03515625 C79.02832031 68.02355469 78.02929688 68.01195312 77 68 C73.32935959 61.1249668 70.69546451 54.01383462 68.0625 46.6875 C65.03902451 38.28064931 61.83955877 30.07115993 58 22 C57.39526855 23.61056274 57.39526855 23.61056274 56.77832031 25.25366211 C55.26768724 29.27470562 53.7534962 33.29440175 52.23828125 37.3137207 C51.58563197 39.04643361 50.93392069 40.77950016 50.28320312 42.51293945 C49.34237042 45.01870017 48.39806039 47.52312773 47.453125 50.02734375 C47.16753723 50.79022202 46.88194946 51.55310028 46.58770752 52.33909607 C44.57806842 57.65113704 42.34334911 62.82622634 40 68 C35.05 68 30.1 68 25 68 C19.42603813 53.91026304 13.96252897 39.77755633 8.54150391 25.62835693 C7.80480695 23.70764199 7.06635904 21.78759772 6.32617188 19.8682251 C5.27380283 17.13793692 4.22792381 14.40524642 3.18359375 11.671875 C2.70139626 10.42635361 2.70139626 10.42635361 2.2094574 9.15567017 C1.91789261 8.38854706 1.62632782 7.62142395 1.32592773 6.83105469 C1.0688353 6.16096375 0.81174286 5.4908728 0.54685974 4.80047607 C0 3 0 3 0 0 Z " fill="#CA2C24" transform="translate(460,427)"/>
<path d="M0 0 C4.50533802 0.04546254 6.84547841 0.22438357 10.47265625 2.9609375 C12.78549681 5.56331918 14.95101046 8.21709837 17.09130859 10.95947266 C19.9378252 14.39867371 23.18145908 17.44940288 26.375 20.5625 C33.98032183 28.07936597 33.98032183 28.07936597 37.4375 32.125 C41.58068511 36.9180965 46.14505821 41.33255821 50.625 45.8125 C50.955 30.9625 51.285 16.1125 51.625 0.8125 C56.575 0.8125 61.525 0.8125 66.625 0.8125 C66.625 23.2525 66.625 45.6925 66.625 68.8125 C51.625 68.8125 51.625 68.8125 47.6875 65.3125 C46.6586886 63.81796067 45.63798983 62.31780804 44.625 60.8125 C43.32215385 59.44936117 41.98773887 58.11576449 40.625 56.8125 C38.06612636 54.34186338 35.70565754 51.76761589 33.38671875 49.07421875 C29.60138093 44.7153755 25.55637462 40.66652486 21.4375 36.625 C20.04576353 35.25896504 18.65637138 33.89053686 17.26953125 32.51953125 C16.66471924 31.9263208 16.05990723 31.33311035 15.43676758 30.72192383 C13.35209287 28.52488288 11.48888341 26.19813725 9.625 23.8125 C9.6095388 24.63602211 9.6095388 24.63602211 9.59376526 25.47618103 C9.48592053 31.16971281 9.37130551 36.86307921 9.25268555 42.55639648 C9.20926577 44.68364007 9.16759607 46.8109201 9.12768555 48.93823242 C9.07015293 51.98888151 9.00641033 55.03934589 8.94140625 58.08984375 C8.91633751 59.52577126 8.91633751 59.52577126 8.89076233 60.9907074 C8.87081711 61.87154495 8.85087189 62.75238251 8.83032227 63.65991211 C8.81477798 64.43934677 8.7992337 65.21878143 8.78321838 66.02183533 C8.625 67.8125 8.625 67.8125 7.625 68.8125 C5.29339945 68.91159302 2.95870058 68.94220504 0.625 68.9375 C-0.65375 68.94007813 -1.9325 68.94265625 -3.25 68.9453125 C-6.375 68.8125 -6.375 68.8125 -7.375 67.8125 C-7.47439626 65.76237154 -7.50299553 63.70878608 -7.50439453 61.65625 C-7.50754669 60.33818359 -7.51069885 59.02011719 -7.51394653 57.66210938 C-7.51215675 56.21223925 -7.5101058 54.76236942 -7.5078125 53.3125 C-7.50848557 51.83658838 -7.50945563 50.36067687 -7.51071167 48.88476562 C-7.51218848 45.78774971 -7.51003464 42.69076258 -7.50537109 39.59375 C-7.4996738 35.61541451 -7.5029529 31.63714648 -7.50894356 27.65881348 C-7.51254963 24.61002083 -7.51141037 21.56124429 -7.50881577 18.51245117 C-7.50814662 17.04516594 -7.50897447 15.57787926 -7.51129532 14.1105957 C-7.51382257 12.06331407 -7.5092906 10.01602734 -7.50439453 7.96875 C-7.50359894 6.80150391 -7.50280334 5.63425781 -7.50198364 4.43164062 C-7.26671009 -0.42106719 -4.34541542 0.35347739 0 0 Z " fill="#E8E8E9" transform="translate(46.375,426.1875)"/>
<path d="M0 0 C7.22238725 2.47624706 10.48708314 6.31595033 13.984375 12.87890625 C17.15730895 19.50545677 16.67227894 25.7087923 14.375 32.5625 C12.30036019 37.75994258 9.70244994 41.82632916 6 46 C5.4328125 46.66 4.865625 47.32 4.28125 48 C-2.06549387 54.8504537 -9.6751532 60.05959325 -17.203125 65.51171875 C-47.40151521 86.78472283 -47.40151521 86.78472283 -63.4375 118.5625 C-63.85173293 121.77607546 -64 124.74794255 -64 128 C-51.36303941 130.06888293 -40.9348968 127.6339432 -30 121 C-28.65228516 119.91332031 -28.65228516 119.91332031 -27.27734375 118.8046875 C-25 117 -25 117 -23 117 C-22.731875 116.43796875 -22.46375 115.8759375 -22.1875 115.296875 C-20.9196021 112.84449354 -19.51027658 110.56072317 -18 108.25 C-17.484375 107.45078125 -16.96875 106.6515625 -16.4375 105.828125 C-15.963125 105.22484375 -15.48875 104.6215625 -15 104 C-14.34 104 -13.68 104 -13 104 C-13.11344376 106.1464753 -13.24106345 108.29220592 -13.375 110.4375 C-13.44460938 111.63246094 -13.51421875 112.82742187 -13.5859375 114.05859375 C-13.72257812 115.02925781 -13.85921875 115.99992187 -14 117 C-14.99 117.495 -14.99 117.495 -16 118 C-16.33 116.35 -16.66 114.7 -17 113 C-18.88961564 115.87941431 -20.1249449 118.3879868 -21.1875 121.6875 C-23.20419665 127.33211656 -27.1740908 131.48817083 -31 136 C-31.7425 137.03125 -32.485 138.0625 -33.25 139.125 C-41.80002704 148.06366463 -55.99311427 155.85770208 -68 159 C-70.375 158.625 -70.375 158.625 -72 158 C-71.32195312 157.64808594 -70.64390625 157.29617187 -69.9453125 156.93359375 C-63.27127558 153.39321128 -57.09113247 149.46594962 -51 145 C-54.1756112 145.57437142 -57.0554915 146.34122986 -60.0625 147.5 C-65.52140318 149.36558476 -71.2287037 150.18907523 -77 150 C-77.66 149.34 -78.32 148.68 -79 148 C-79 147.01 -79 146.02 -79 145 C-78.34 144.67 -77.68 144.34 -77 144 C-76.61718841 138.76824163 -77.78145293 135.62197306 -80 131 C-81.65 131.99 -83.3 132.98 -85 134 C-84.690625 133.236875 -84.38125 132.47375 -84.0625 131.6875 C-83.32106407 129.81210323 -82.63771783 127.91315348 -82 126 C-81.01 126 -80.02 126 -79 126 C-78.9175 124.72125 -78.835 123.4425 -78.75 122.125 C-76.14666726 99.8404717 -56.77399439 82.2916388 -40.22680664 69.16967773 C-36.42888462 66.18471399 -32.60483259 63.2339176 -28.77539062 60.28955078 C-7.2397914 45.26834982 -7.2397914 45.26834982 5 23 C5.97268274 14.6627194 2.54642601 8.81963902 -2 2 C-1.34 2 -0.68 2 0 2 C0 1.34 0 0.68 0 0 Z " fill="#B2211F" transform="translate(415,50)"/>
<path d="M0 0 C5.79450216 4.48158664 10.9653188 11.4004438 12.16796875 18.76171875 C12.93808779 30.3135044 12.38674427 38.9301517 4.73046875 48.07421875 C0.27886165 53.00093937 -4.0814542 56.13446066 -10.33203125 58.44921875 C-11.43546875 58.86558594 -12.53890625 59.28195312 -13.67578125 59.7109375 C-27.05489916 64.16512403 -41.10571693 62.44276045 -53.6484375 56.40625 C-63.35572441 51.01009796 -68.48238882 43.78966373 -71.58203125 33.19921875 C-72.59528331 23.32001119 -71.50287374 15.04994078 -65.578125 6.89453125 C-50.11391722 -11.9946353 -19.60660621 -13.25222637 0 0 Z M-49.83203125 10.38671875 C-54.18460576 16.02623236 -56.24822548 22.2554021 -55.76953125 29.38671875 C-54.74468662 35.55759173 -52.43636718 40.15738282 -48.01953125 44.57421875 C-40.08578355 50.01894757 -31.71225564 51.81862633 -22.14453125 50.19921875 C-15.2859432 48.38009504 -9.72446883 43.60037512 -5.83203125 37.76171875 C-2.87161224 31.43180464 -2.59865484 24.59418451 -4.7421875 17.93359375 C-7.98863823 10.96050986 -11.74933461 6.77435755 -19.01953125 3.94921875 C-29.69050283 0.83908633 -41.84285938 2.09543534 -49.83203125 10.38671875 Z " fill="#CB2C24" transform="translate(662.83203125,434.23828125)"/>
<path d="M0 0 C5.28 0 10.56 0 16 0 C16 9.24 16 18.48 16 28 C29.2 28 42.4 28 56 28 C55.631496 19.15906019 55.631496 19.15906019 55.25170898 10.31860352 C55.20860596 9.22475342 55.16550293 8.13090332 55.12109375 7.00390625 C55.0739624 5.87799072 55.02683105 4.7520752 54.97827148 3.59204102 C55 1 55 1 56 0 C60.95 0 65.9 0 71 0 C71 22.44 71 44.88 71 68 C66.05 68 61.1 68 56 68 C56 58.43 56 48.86 56 39 C42.8 39 29.6 39 16 39 C16.03959518 48.1698291 16.03959518 48.1698291 16.09008789 57.33959961 C16.09258545 58.47405518 16.09508301 59.60851074 16.09765625 60.77734375 C16.10551147 62.52905884 16.10551147 62.52905884 16.11352539 64.31616211 C16 67 16 67 15 68 C10.05 68 5.1 68 0 68 C0 45.56 0 23.12 0 0 Z " fill="#ECECEC" transform="translate(287,427)"/>
<path d="M0 0 C-1.3697164 3.99500618 -3.25722422 6.80009492 -6 10 C-6.78375 9.731875 -7.5675 9.46375 -8.375 9.1875 C-9.57125 8.795625 -10.7675 8.40375 -12 8 C-12.72703125 7.73574219 -13.4540625 7.47148437 -14.203125 7.19921875 C-25.25061016 3.43951009 -35.37709491 4.15280775 -46 9 C-50.62234267 11.80805038 -53.97883361 15.61515476 -55.55859375 20.8515625 C-57.28436864 29.25135179 -55.80672912 35.530024 -51.3125 42.6875 C-45.84302122 48.15697878 -38.58388997 50.30750931 -31 51 C-25.23213826 50.85874624 -19.68816704 49.94802784 -14 49 C-14 41.74 -14 34.48 -14 27 C-9.05 27 -4.1 27 1 27 C1 36.57 1 46.14 1 56 C-16.00427277 63.08511366 -32.20573677 66.09172975 -50 60 C-60.37363094 55.54837684 -67.72986838 49.56054057 -72 39 C-74.32801163 32.0159651 -74.25850587 21.87168097 -71.4375 15 C-65.92575693 4.88228982 -57.26418699 -2.00269952 -46.3359375 -5.45703125 C-30.56939728 -9.12182906 -14.19798268 -7.91810573 0 0 Z " fill="#E9E9EA" transform="translate(258,433)"/>
<path d="M0 0 C5.93953475 4.85961934 5.79072402 13.666917 6.625 20.75 C6.75688721 21.85077881 6.88877441 22.95155762 7.0246582 24.08569336 C8.07354766 33.42670822 8.32364933 42.61416931 8 52 C7.01 50.02 7.01 50.02 6 48 C5.29423828 49.57201172 5.29423828 49.57201172 4.57421875 51.17578125 C3.94566452 52.554848 3.31673876 53.93374545 2.6875 55.3125 C2.37876953 56.00279297 2.07003906 56.69308594 1.75195312 57.40429688 C1.29272461 58.40493164 1.29272461 58.40493164 0.82421875 59.42578125 C0.54666748 60.03848877 0.26911621 60.65119629 -0.0168457 61.2824707 C-1.1091791 63.19073131 -2.38865393 64.51581318 -4 66 C-3.34 66.33 -2.68 66.66 -2 67 C-2.99 67.99 -3.98 68.98 -5 70 C-6.27749816 66.16750552 -5.23382946 63.68125976 -4.1875 59.9375 C-1.12119305 48.18024472 -0.68568785 36.08455154 0 24 C-0.66 24 -1.32 24 -2 24 C-2.226875 24.804375 -2.45375 25.60875 -2.6875 26.4375 C-6.03826068 35.53242184 -11.31496892 42.06096083 -18 49 C-18.61230469 49.64066406 -19.22460938 50.28132813 -19.85546875 50.94140625 C-25.05948208 56.26450455 -30.67269382 61.1096318 -36.4375 65.8125 C-39.03231972 67.73971393 -39.03231972 67.73971393 -40 70 C-40.66 70 -41.32 70 -42 70 C-42.26425781 70.58007812 -42.52851563 71.16015625 -42.80078125 71.7578125 C-44.04909202 74.09178768 -45.47527282 75.86107604 -47.1875 77.875 C-56.49906601 89.71371336 -60.7623082 103.1476984 -62 118 C-62.66 118 -63.32 118 -64 118 C-69.82918149 90.65836299 -69.82918149 90.65836299 -64 79 C-84.63027928 88.43784239 -103.1161558 99.03890637 -121 113 C-121 109.0646284 -119.85270558 108.46663001 -117.1171875 105.71875 C-116.28646729 104.8819873 -115.45574707 104.04522461 -114.59985352 103.18310547 C-113.70065186 102.29768066 -112.8014502 101.41225586 -111.875 100.5 C-110.96226318 99.59523926 -110.04952637 98.69047852 -109.10913086 97.75830078 C-102.61068482 91.39525094 -95.94597742 85.56188215 -88.61474609 80.19140625 C-86.38647537 78.54732383 -84.20335445 76.8474465 -82.0168457 75.1484375 C-79.88844328 73.4976201 -77.74691212 71.86431073 -75.60546875 70.23046875 C-73.93902396 68.95326654 -72.28190114 67.66455124 -70.625 66.375 C-69.54191636 65.54134217 -68.45859205 64.70799689 -67.375 63.875 C-65.93253906 62.75738281 -65.93253906 62.75738281 -64.4609375 61.6171875 C-62 60 -62 60 -59 60 C-60.3125 62 -60.3125 62 -62 64 C-62.99 64 -63.98 64 -65 64 C-65.268125 64.61875 -65.53625 65.2375 -65.8125 65.875 C-67 68 -67 68 -70 70 C-43.31136266 59.69085969 -18.08581762 43.28667582 -6.10131836 16.30493164 C-4.2443777 11.8821009 -2.71758587 7.39782934 -1.5078125 2.7578125 C-1 1 -1 1 0 0 Z " fill="#B5B5B5" transform="translate(499,41)"/>
<path d="M0 0 C17.49 0 34.98 0 53 0 C53.495 4.95 53.495 4.95 54 10 C53 11 53 11 49.39819336 11.11352539 C47.79540144 11.11336625 46.1926044 11.10767063 44.58984375 11.09765625 C43.74780899 11.0962413 42.90577423 11.09482635 42.03822327 11.09336853 C39.33794665 11.08775263 36.63775172 11.07519748 33.9375 11.0625 C32.11132932 11.05748705 30.28515734 11.05292379 28.45898438 11.04882812 C23.97259915 11.03862716 19.48639145 11.01905499 15 11 C15 17.27 15 23.54 15 30 C26.22 30 37.44 30 49 30 C49 33.63 49 37.26 49 41 C37.78 41 26.56 41 15 41 C15 49.91 15 58.82 15 68 C10.05 68 5.1 68 0 68 C0 45.56 0 23.12 0 0 Z " fill="#CB2C25" transform="translate(775,427)"/>
<path d="M0 0 C0.99 0.495 0.99 0.495 2 1 C1.38253906 1.48726562 0.76507813 1.97453125 0.12890625 2.4765625 C-10.60656482 11.46363874 -17.44979456 22.78115501 -22 36 C-22.25894043 36.73234863 -22.51788086 37.46469727 -22.78466797 38.21923828 C-24.82826216 44.39357883 -25.34864115 49.90510059 -25.375 56.375 C-25.63306868 66.1334371 -27.08940962 74.00313452 -33.25 81.875 C-47.19773984 92.65279897 -47.19773984 92.65279897 -56.59375 92.44921875 C-63.24351395 91.20778554 -68.57938891 85.84841217 -73 81 C-72.505 80.01 -72.505 80.01 -72 79 C-70.68 79.33 -69.36 79.66 -68 80 C-68 80.66 -68 81.32 -68 82 C-66.35 82.33 -64.7 82.66 -63 83 C-63.33 82.34 -63.66 81.68 -64 81 C-64.04022391 78.6670134 -64.04320247 76.33293334 -64 74 C-63.67 74 -63.34 74 -63 74 C-62.34 76.64 -61.68 79.28 -61 82 C-59.515 81.505 -59.515 81.505 -58 81 C-57.22889524 78.55918021 -56.64409604 76.24554424 -56.125 73.75 C-52.55137307 58.18440632 -46.5520983 43.15520554 -36 31 C-35.1853125 30.05253906 -34.370625 29.10507813 -33.53125 28.12890625 C-23.7301008 16.96524134 -12.30644259 8.2175278 0 0 Z " fill="#861716" transform="translate(345,133)"/>
<path d="M0 0 C1.31806641 -0.00315216 2.63613281 -0.00630432 3.99414062 -0.009552 C5.44401075 -0.00776222 6.89388058 -0.00571127 8.34375 -0.00341797 C9.81966162 -0.00409104 11.29557313 -0.0050611 12.77148438 -0.00631714 C15.86850029 -0.00779395 18.96548742 -0.00564011 22.0625 -0.00097656 C26.04083549 0.00472073 30.01910352 0.00144163 33.99743652 -0.00454903 C37.04622917 -0.0081551 40.09500571 -0.00701584 43.14379883 -0.00442123 C44.61108406 -0.00375209 46.07837074 -0.00457994 47.5456543 -0.00690079 C49.59293593 -0.00942804 51.64022266 -0.00489607 53.6875 0 C55.43836914 0.00119339 55.43836914 0.00119339 57.22460938 0.00241089 C59.84375 0.12939453 59.84375 0.12939453 60.84375 1.12939453 C60.9416557 2.62677577 60.97349864 4.12882345 60.96875 5.62939453 C60.97261719 6.85142578 60.97261719 6.85142578 60.9765625 8.09814453 C60.84375 10.12939453 60.84375 10.12939453 59.84375 11.12939453 C57.99005389 11.21677098 56.13307459 11.23637606 54.27734375 11.22705078 C53.15263672 11.22382813 52.02792969 11.22060547 50.86914062 11.21728516 C49.68513672 11.20890625 48.50113281 11.20052734 47.28125 11.19189453 C46.09337891 11.18738281 44.90550781 11.18287109 43.68164062 11.17822266 C40.73562774 11.16639128 37.78971319 11.1499074 34.84375 11.12939453 C34.84597061 11.82874619 34.84819122 12.52809784 34.85047913 13.24864197 C34.8704828 19.82644374 34.88572452 26.40423707 34.89556217 32.98206234 C34.90078975 36.36411266 34.90788511 39.74613793 34.91918945 43.12817383 C34.93209267 47.0126923 34.93697924 50.8972005 34.94140625 54.78173828 C34.94656754 56.00150864 34.95172882 57.22127899 34.95704651 58.47801208 C34.95712204 59.59909866 34.95719757 60.72018524 34.95727539 61.87524414 C34.959496 62.86785751 34.96171661 63.86047089 34.96400452 64.88316345 C34.84375 67.12939453 34.84375 67.12939453 33.84375 68.12939453 C28.89375 68.12939453 23.94375 68.12939453 18.84375 68.12939453 C18.84375 49.31939453 18.84375 30.50939453 18.84375 11.12939453 C10.26375 11.12939453 1.68375 11.12939453 -7.15625 11.12939453 C-7.15625 0.00487769 -7.15625 0.00487769 0 0 Z " fill="#E6E6E6" transform="translate(386.15625,426.87060546875)"/>
<path d="M0 0 C4.95 0 9.9 0 15 0 C15 18.81 15 37.62 15 57 C27.21 57 39.42 57 52 57 C52 60.63 52 64.26 52 68 C34.84 68 17.68 68 0 68 C-0.82410564 63.8794718 -1.0962572 60.78137161 -1.02172852 56.64916992 C-1.00163223 55.3882402 -0.98153595 54.12731049 -0.96083069 52.82817078 C-0.93363863 51.46226778 -0.90632772 50.09636716 -0.87890625 48.73046875 C-0.85458489 47.32514745 -0.83074236 45.91981779 -0.80735779 44.51448059 C-0.74471731 40.82697987 -0.67559468 37.13962837 -0.60510254 33.45227051 C-0.53423738 29.68504597 -0.46952946 25.91771616 -0.40429688 22.15039062 C-0.27554302 14.76680815 -0.13936889 7.38339113 0 0 Z " fill="#CB2B25" transform="translate(701,427)"/>
<path d="M0 0 C5.28 0 10.56 0 16 0 C16 22.44 16 44.88 16 68 C11.05 68 6.1 68 1 68 C0 67 0 67 -0.12025452 64.33616638 C-0.11803391 63.14813919 -0.11581329 61.960112 -0.11352539 60.73608398 C-0.11367142 60.08244873 -0.11381744 59.42881348 -0.1139679 58.75537109 C-0.11326883 56.58557872 -0.10547678 54.41587121 -0.09765625 52.24609375 C-0.09579205 50.74536689 -0.09436816 49.24463943 -0.09336853 47.74391174 C-0.08954352 43.78681774 -0.0797134 39.82976022 -0.06866455 35.87268066 C-0.05845006 31.83765151 -0.05387083 27.80261647 -0.04882812 23.76757812 C-0.0380911 15.84503344 -0.02049445 7.92252546 0 0 Z " fill="#E7E7E7" transform="translate(143,427)"/>
<path d="M0 0 C1.32 0.33 2.64 0.66 4 1 C5.51305615 15.592586 -2.01998167 30.05347712 -10.99145508 41.14208984 C-21.28156621 53.38897078 -32.78283421 62.67689448 -47 70 C-48.44411955 70.76672156 -49.88812578 71.53365659 -51.33203125 72.30078125 C-52.78270441 73.0568975 -54.23450759 73.81085016 -55.6875 74.5625 C-56.71302979 75.10148926 -56.71302979 75.10148926 -57.75927734 75.65136719 C-59.46881229 76.51280413 -61.23214087 77.26565851 -63 78 C-63.99 77.67 -64.98 77.34 -66 77 C-65.195625 76.38125 -64.39125 75.7625 -63.5625 75.125 C-60.96125481 73.25835959 -60.96125481 73.25835959 -60 71 C-59.401875 70.7525 -58.80375 70.505 -58.1875 70.25 C-55.7527572 69.08659731 -55.7527572 69.08659731 -54.26953125 66.24609375 C-51.7764137 62.68020618 -48.95802139 60.35420026 -45.5 57.8125 C-26.08505428 43.02560945 -11.74517817 26.4298855 -2 4 C-1.34395713 2.66140747 -0.68184582 1.32563513 0 0 Z " fill="#E4E4E4" transform="translate(494,34)"/>
<path d="M0 0 C0.33 0 0.66 0 1 0 C0.9278125 0.89460938 0.855625 1.78921875 0.78125 2.7109375 C0.58857554 5.22105757 0.41914799 7.73303963 0.26953125 10.24609375 C0 14 0 14 -0.48828125 16.91015625 C-0.84408407 19.68370353 -0.97921814 21.36835125 0 24 C2.81408033 26.28204327 5.63096064 27.84752422 8.88671875 29.4296875 C11.991449 30.99568695 14.43953438 32.65330238 17 35 C17 35.66 17 36.32 17 37 C13.48255435 38.13799712 12.29015776 38.13927573 8.875 36.5 C7.92625 36.005 6.9775 35.51 6 35 C5.01 35.33 4.02 35.66 3 36 C1.56883373 34.85338078 0.14501769 33.69559548 -1.22802734 32.47998047 C-7.00663032 27.47713967 -11.38459166 25.37825222 -19.13110352 25.65234375 C-23.11510151 25.97562929 -27.0445228 26.41901442 -31 27 C-31 26.34 -31 25.68 -31 25 C-28.08573044 23.6821304 -25.16819206 22.37165825 -22.25 21.0625 C-21.425 20.68931641 -20.6 20.31613281 -19.75 19.93164062 C-18.55117188 19.39506836 -18.55117188 19.39506836 -17.328125 18.84765625 C-16.5949707 18.51773682 -15.86181641 18.18781738 -15.10644531 17.84790039 C-13.08507693 17.03424573 -11.12433137 16.47230688 -9 16 C-9 15.34 -9 14.68 -9 14 C-9.84304688 14.3609375 -10.68609375 14.721875 -11.5546875 15.09375 C-12.65039062 15.5578125 -13.74609375 16.021875 -14.875 16.5 C-15.96554687 16.9640625 -17.05609375 17.428125 -18.1796875 17.90625 C-21 19 -21 19 -23 19 C-23 18.34 -23 17.68 -23 17 C-22.34 17 -21.68 17 -21 17 C-21 16.34 -21 15.68 -21 15 C-20.34 15 -19.68 15 -19 15 C-18.67 14.01 -18.34 13.02 -18 12 C-15.234375 10.60546875 -15.234375 10.60546875 -11.75 9.1875 C-6.29376741 6.80039824 -3.2785137 4.91777056 0 0 Z " fill="#B0AEAE" transform="translate(536,105)"/>
<path d="M0 0 C2.65549777 0.61607548 5.05334726 0.28006609 7.765625 0.078125 C13.27209634 0.00434767 13.27209634 0.00434767 16.15234375 1.90234375 C17.953125 3.765625 17.953125 3.765625 19.453125 5.62890625 C21.08962571 7.61912977 22.84956456 8.97972598 24.953125 10.453125 C24.27765625 10.58589844 23.6021875 10.71867188 22.90625 10.85546875 C22.01421875 11.03207031 21.1221875 11.20867187 20.203125 11.390625 C19.32140625 11.56464844 18.4396875 11.73867187 17.53125 11.91796875 C15.99151273 12.23758088 14.45666816 12.58589834 12.9375 12.9921875 C4.3738004 14.98139331 -1.8939734 13.10116411 -9.41796875 8.86328125 C-13.36228438 6.74753394 -16.58262363 6.32834298 -21.03125 6.35546875 C-21.96582031 6.35869141 -22.90039062 6.36191406 -23.86328125 6.36523438 C-25.31541016 6.37780273 -25.31541016 6.37780273 -26.796875 6.390625 C-28.27220703 6.39739258 -28.27220703 6.39739258 -29.77734375 6.40429688 C-32.20058291 6.41606017 -34.62369773 6.43249816 -37.046875 6.453125 C-36.046875 4.453125 -36.046875 4.453125 -32.3203125 3.1640625 C-30.69153981 2.70419359 -29.05833526 2.25983985 -27.421875 1.828125 C-26.56972412 1.60302246 -25.71757324 1.37791992 -24.83959961 1.14599609 C-16.85766849 -0.82435466 -8.09018192 -2.16149899 0 0 Z " fill="#E1E1E0" transform="translate(556.046875,163.546875)"/>
<path d="M0 0 C-21.63127712 11.46078191 -46.18455182 17.91286696 -70 23 C-70.91716797 23.20882813 -71.83433594 23.41765625 -72.77929688 23.6328125 C-74.1028418 23.92285156 -74.1028418 23.92285156 -75.453125 24.21875 C-76.23333008 24.39341797 -77.01353516 24.56808594 -77.81738281 24.74804688 C-80.15923098 25.01838103 -81.7695631 24.71343514 -84 24 C-83.01 23.34 -82.02 22.68 -81 22 C-82.32 20.68 -83.64 19.36 -85 18 C-84.34032227 17.8956665 -83.68064453 17.79133301 -83.00097656 17.68383789 C-67.8409117 15.23954269 -52.95113646 12.18559211 -38.0625 8.4375 C-37.30658569 8.24817902 -36.55067139 8.05885803 -35.77185059 7.86380005 C-27.3459698 5.7447334 -19.00744788 3.47586438 -10.73217773 0.81665039 C-3.78215396 -1.26071799 -3.78215396 -1.26071799 0 0 Z " fill="#828282" transform="translate(320,324)"/>
<path d="M0 0 C5 0 5 0 6.39379883 1.37695312 C6.74466553 2.00537109 7.09553223 2.63378906 7.45703125 3.28125 C7.84697266 3.95800781 8.23691406 4.63476562 8.63867188 5.33203125 C9.02603516 6.04746094 9.41339844 6.76289062 9.8125 7.5 C10.21919922 8.21542969 10.62589844 8.93085937 11.04492188 9.66796875 C12.04674806 11.43589731 13.0256102 13.21680298 14 15 C16.73354503 11.7019185 19.08307287 8.38112579 21.25 4.6875 C21.77078125 3.80449219 22.2915625 2.92148437 22.828125 2.01171875 C23.21484375 1.34785156 23.6015625 0.68398438 24 0 C26.475 0.495 26.475 0.495 29 1 C28.67 9.25 28.34 17.5 28 26 C26.68 26 25.36 26 24 26 C23.67 21.05 23.34 16.1 23 11 C20.69 14.96 18.38 18.92 16 23 C12 22 12 22 10.296875 19.71484375 C8.1484375 15.85742188 8.1484375 15.85742188 6 12 C5.67 16.29 5.34 20.58 5 25 C3.35 25.33 1.7 25.66 0 26 C0 17.42 0 8.84 0 0 Z " fill="#9FA0A4" transform="translate(309,530)"/>
<path d="M0 0 C0.66 0.33 1.32 0.66 2 1 C2.02712066 2.43739513 2.04645067 3.87493863 2.0625 5.3125 C2.07410156 6.11300781 2.08570313 6.91351563 2.09765625 7.73828125 C2 10 2 10 1 13 C1.66 13.33 2.32 13.66 3 14 C2.34 15.32 1.68 16.64 1 18 C0.505 17.01 0.505 17.01 0 16 C-0.598125 16.928125 -1.19625 17.85625 -1.8125 18.8125 C-7.27214134 26.76797737 -14.89132273 28.92258238 -24 31 C-24.66 31.33 -25.32 31.66 -26 32 C-27.54023996 32.06950541 -29.08334988 32.08452357 -30.625 32.0625 C-31.85089844 32.04896484 -31.85089844 32.04896484 -33.1015625 32.03515625 C-33.72804688 32.02355469 -34.35453125 32.01195312 -35 32 C-35.33 31.34 -35.66 30.68 -36 30 C-33.47237006 26.20855508 -30.43456122 25.10309232 -26.4375 23.25 C-16.59333691 18.46930089 -9.50122683 14.08859977 -4.2890625 4.13671875 C-3 2 -3 2 0 0 Z " fill="#D5D4D4" transform="translate(537,88)"/>
<path d="M0 0 C1.65 0 3.3 0 5 0 C7.64 4.95 10.28 9.9 13 15 C13.66 15 14.32 15 15 15 C15.51949219 14.00097656 16.03898437 13.00195312 16.57421875 11.97265625 C17.27774635 10.6687851 17.98222331 9.36542588 18.6875 8.0625 C19.02716797 7.40314453 19.36683594 6.74378906 19.71679688 6.06445312 C20.76171875 4.16015625 20.76171875 4.16015625 23 1 C24.65 0.67 26.3 0.34 28 0 C28 8.58 28 17.16 28 26 C26.68 26 25.36 26 24 26 C23.67 20.72 23.34 15.44 23 10 C21.9275 11.959375 20.855 13.91875 19.75 15.9375 C17.921875 19.27734375 17.921875 19.27734375 16 22 C14.68 22.33 13.36 22.66 12 23 C8.535 17.06 8.535 17.06 5 11 C4.67 15.95 4.34 20.9 4 26 C2.35 25.67 0.7 25.34 -1 25 C-0.67 16.75 -0.34 8.5 0 0 Z " fill="#A7A7A9" transform="translate(415,530)"/>
<path d="M0 0 C5 0 5 0 7.0625 1.9765625 C7.701875 2.85054687 8.34125 3.72453125 9 4.625 C9.639375 5.48351562 10.27875 6.34203125 10.9375 7.2265625 C11.618125 8.14179687 12.29875 9.05703125 13 10 C14.65 11.98 16.3 13.96 18 16 C18.33 10.72 18.66 5.44 19 0 C20.65 0 22.3 0 24 0 C24 8.25 24 16.5 24 25 C22.35 25.33 20.7 25.66 19 26 C12.565 18.08 12.565 18.08 6 10 C5.67 15.28 5.34 20.56 5 26 C3.35 25.67 1.7 25.34 0 25 C0 16.75 0 8.5 0 0 Z " fill="#9C9C9F" transform="translate(541,530)"/>
<path d="M0 0 C2.35125 -0.061875 4.7025 -0.12375 7.125 -0.1875 C7.85348145 -0.21481201 8.58196289 -0.24212402 9.33251953 -0.27026367 C14.79794848 -0.339193 18.73617611 0.97036479 22.8125 4.625 C24.65493778 8.30987555 25.11396512 11.8972556 25 16 C23.74557459 19.76327622 22.73865273 21.45074541 19.5625 23.8125 C12.72135335 26.98278747 8.37239145 26 0 26 C0 17.42 0 8.84 0 0 Z M5 4 C5 9.94 5 15.88 5 22 C12.53387496 22.3605634 12.53387496 22.3605634 18 19 C20.34168764 15.48746854 20.49623677 14.13530644 20 10 C17.84909549 6.66238955 16.79587201 5.26529067 13 4 C10.36 4 7.72 4 5 4 Z " fill="#9D9DA0" transform="translate(480,530)"/>
<path d="M0 0 C4 0 4 0 5.43212891 1.25341797 C5.85929199 1.82721191 6.28645508 2.40100586 6.7265625 2.9921875 C7.2009375 3.61480469 7.6753125 4.23742187 8.1640625 4.87890625 C8.88722656 5.86697266 8.88722656 5.86697266 9.625 6.875 C10.59548188 8.16471934 11.56680149 9.45380884 12.5390625 10.7421875 C13.17642334 11.60626221 13.17642334 11.60626221 13.82666016 12.48779297 C15.0634111 14.14687052 15.0634111 14.14687052 17 16 C17.33 10.72 17.66 5.44 18 0 C19.32 0 20.64 0 22 0 C22 8.58 22 17.16 22 26 C16.37356133 24.87471227 16.37356133 24.87471227 14.140625 22.12890625 C13.66496094 21.55462891 13.18929687 20.98035156 12.69921875 20.38867188 C12.22097656 19.78603516 11.74273438 19.18339844 11.25 18.5625 C10.75628906 17.96373047 10.26257813 17.36496094 9.75390625 16.74804688 C6.20076885 12.4015377 6.20076885 12.4015377 5 10 C4.67 15.28 4.34 20.56 4 26 C2.35 25.67 0.7 25.34 -1 25 C-1.02886984 21.02084841 -1.04675406 17.04172347 -1.0625 13.0625 C-1.07087891 11.92619141 -1.07925781 10.78988281 -1.08789062 9.61914062 C-1.09111328 8.53955078 -1.09433594 7.45996094 -1.09765625 6.34765625 C-1.10289307 5.34742432 -1.10812988 4.34719238 -1.11352539 3.31665039 C-1 1 -1 1 0 0 Z " fill="#8C8B8E" transform="translate(603,530)"/>
<path d="M0 0 C1.23234375 -0.02578125 2.4646875 -0.0515625 3.734375 -0.078125 C7.49052044 0.27244857 9.28730011 0.96936052 12.25 3.25 C14.60620437 6.78430656 14.73991613 8.08571287 14.25 12.25 C12.25 15.625 12.25 15.625 10.25 18.25 C10.91 19.19875 11.57 20.1475 12.25 21.125 C14.25 24.25 14.25 24.25 14.25 26.25 C12.0625 26.125 12.0625 26.125 9.25 25.25 C8.445625 24.26 7.64125 23.27 6.8125 22.25 C4.51489578 18.98374964 4.51489578 18.98374964 0.9375 18.375 C0.050625 18.33375 -0.83625 18.2925 -1.75 18.25 C-2.08 20.89 -2.41 23.53 -2.75 26.25 C-4.4 25.92 -6.05 25.59 -7.75 25.25 C-7.77886984 21.27084841 -7.79675406 17.29172347 -7.8125 13.3125 C-7.82087891 12.17619141 -7.82925781 11.03988281 -7.83789062 9.86914062 C-7.84111328 8.78955078 -7.84433594 7.70996094 -7.84765625 6.59765625 C-7.85289307 5.59742432 -7.85812988 4.59719238 -7.86352539 3.56665039 C-7.62837907 -1.23185158 -4.05630875 0.05049347 0 0 Z M-2.75 4.25 C-2.77689216 5.72906892 -2.79634621 7.20827483 -2.8125 8.6875 C-2.82410156 9.51121094 -2.83570313 10.33492187 -2.84765625 11.18359375 C-2.98267348 13.24163938 -2.98267348 13.24163938 -1.75 14.25 C1.91344611 14.38568319 4.75615721 14.41461426 8.25 13.25 C8.58 10.94 8.91 8.63 9.25 6.25 C5.34971775 3.64981184 1.77565431 4.09914486 -2.75 4.25 Z " fill="#9B9B9E" transform="translate(244.75,529.75)"/>
<path d="M0 0 C9.52081947 -0.03040386 19.04164073 -0.05090498 28.5625 -0.0625 C29.26047573 -0.06335602 29.95845146 -0.06421204 30.67757797 -0.06509399 C51.13346469 -0.08728231 71.56286229 0.00086286 92 1 C92 1.66 92 2.32 92 3 C61.34198053 4.27883463 30.67838247 4.10462583 0 4 C0 2.68 0 1.36 0 0 Z " fill="#9E2123" transform="translate(689,540)"/>
<path d="M0 0 C3.94327235 0.01043358 7.88655167 0.01483943 11.82983398 0.01983643 C19.49651891 0.03039806 27.16317059 0.04734678 34.82983398 0.06866455 C34.49983398 1.38866455 34.16983398 2.70866455 33.82983398 4.06866455 C-12.47160382 4.2580782 -12.47160382 4.2580782 -35.00900269 3.75027466 C-36.69588396 3.71262151 -38.38284063 3.67820287 -40.06985474 3.64706421 C-42.40314573 3.60243168 -44.73572044 3.54482965 -47.06860352 3.48272705 C-48.37490723 3.45130615 -49.68121094 3.41988525 -51.02709961 3.38751221 C-54.17016602 3.06866455 -54.17016602 3.06866455 -57.17016602 1.06866455 C-38.10737107 0.01303017 -19.08361924 -0.05604513 0 0 Z " fill="#A02224" transform="translate(142.170166015625,539.9313354492188)"/>
<path d="M0 0 C14.39327353 -0.4073568 14.39327353 -0.4073568 20 3 C22.18869145 5.66449395 21.99787846 7.06046401 21.875 10.5625 C21 14 21 14 19.1875 15.875 C14.44751555 18.31270629 10.25340615 18.08755677 5 18 C5 20.64 5 23.28 5 26 C3.35 26 1.7 26 0 26 C0 17.42 0 8.84 0 0 Z M5 4 C5 7.3 5 10.6 5 14 C10.53069113 14.43933257 10.53069113 14.43933257 15.5 12.5 C15.995 12.005 16.49 11.51 17 11 C16.72965366 8.56282742 16.72965366 8.56282742 16 6 C12.91111478 3.94074319 12.29064073 3.7609626 8.8125 3.875 C7.554375 3.91625 6.29625 3.9575 5 4 Z " fill="#8B8B8E" transform="translate(201,530)"/>
<path d="M0 0 C3.125 1.5 3.125 1.5 5 3 C4.01 4.485 4.01 4.485 3 6 C2.26394531 5.89300781 1.52789063 5.78601563 0.76953125 5.67578125 C-5.23468565 4.92307121 -5.23468565 4.92307121 -11.125 5.9375 C-13.5039091 8.55430001 -14.04098457 10.49511029 -14.25390625 13.9921875 C-14.10831908 16.30716152 -14.10831908 16.30716152 -12.0625 19 C-7.98471295 21.6630446 -5.78730024 21.40570341 -1 21 C-0.67 18.03 -0.34 15.06 0 12 C2.475 12.495 2.475 12.495 5 13 C5.16500711 21.58036984 5.16500711 21.58036984 4 24 C-0.20981504 26.6311344 -5.2004635 26.77334724 -10 26 C-14.35216386 24.26953212 -17.27281205 22.3089383 -19.5625 18.1875 C-20.10548792 14.23144515 -20.23240869 10.83152701 -19 7 C-13.60768322 0.2960386 -8.29145189 -0.92424908 0 0 Z " fill="#9F9EA0" transform="translate(660,530)"/>
<path d="M0 0 C1.32 0 2.64 0 4 0 C4.03738281 1.26457031 4.07476562 2.52914062 4.11328125 3.83203125 C4.17893833 5.4922173 4.24538576 7.15237222 4.3125 8.8125 C4.33505859 9.64587891 4.35761719 10.47925781 4.38085938 11.33789062 C4.41630859 12.14033203 4.45175781 12.94277344 4.48828125 13.76953125 C4.51446533 14.50792236 4.54064941 15.24631348 4.56762695 16.00708008 C5.11567245 18.53316441 5.95404604 19.45251592 8 21 C11.04211431 21.4167552 11.04211431 21.4167552 14 21 C16.3968665 18.6031335 16.28281133 17.92971686 16.4140625 14.6484375 C16.45273437 13.79765625 16.49140625 12.946875 16.53125 12.0703125 C16.5621875 11.18085937 16.593125 10.29140625 16.625 9.375 C16.66367187 8.4778125 16.70234375 7.580625 16.7421875 6.65625 C16.83659357 4.4377073 16.92216748 2.21917597 17 0 C18.65 0 20.3 0 22 0 C22.08115993 3.06303578 22.14057409 6.12390815 22.1875 9.1875 C22.21263672 10.05181641 22.23777344 10.91613281 22.26367188 11.80664062 C22.31944123 16.65857492 22.32303209 20.15424376 19 24 C14.98869286 26.69330622 10.66838046 26.7996015 6 26 C3.04574805 24.46158249 0.60267819 22.5430014 -0.6484375 19.33984375 C-1.17485558 15.83623897 -1.14384558 12.34604602 -1.125 8.8125 C-1.12886719 8.07580078 -1.13273437 7.33910156 -1.13671875 6.58007812 C-1.12668491 1.12668491 -1.12668491 1.12668491 0 0 Z " fill="#A8A8AA" transform="translate(376,530)"/>
<path d="M0 0 C5.62768616 5.62768616 5.62768616 5.62768616 7.640625 9.3203125 C8.07117188 10.10277344 8.50171875 10.88523437 8.9453125 11.69140625 C9.37585938 12.49449219 9.80640625 13.29757813 10.25 14.125 C10.69601562 14.93582031 11.14203125 15.74664062 11.6015625 16.58203125 C14.75570619 22.36462802 16.12700277 26.26885297 16 33 C14.02 33 12.04 33 10 33 C10 32.01 10 31.02 10 30 C9.01 29.67 8.02 29.34 7 29 C5.3125 25.9375 5.3125 25.9375 4 23 C3.34 23 2.68 23 2 23 C2 20.69 2 18.38 2 16 C1.01 16 0.02 16 -1 16 C-1.99 16.99 -2.98 17.98 -4 19 C-2.02 9.595 -2.02 9.595 0 0 Z " fill="#BFBDBD" transform="translate(496,19)"/>
<path d="M0 0 C5.94 0 11.88 0 18 0 C18 1.32 18 2.64 18 4 C13.38 4 8.76 4 4 4 C4 6.31 4 8.62 4 11 C8.29 11 12.58 11 17 11 C16.67 12.32 16.34 13.64 16 15 C12.04 15 8.08 15 4 15 C4 17.31 4 19.62 4 22 C8.95 22 13.9 22 19 22 C18.67 23.32 18.34 24.64 18 26 C12.06 26 6.12 26 0 26 C0 17.42 0 8.84 0 0 Z " fill="#A9A9AC" transform="translate(275,530)"/>
<path d="M0 0 C1.32 0 2.64 0 4 0 C4 8.58 4 17.16 4 26 C-1.58879398 24.8822412 -2.08027185 24.26539871 -5.3125 19.9375 C-6.00988281 19.01839844 -6.70726562 18.09929688 -7.42578125 17.15234375 C-7.94527344 16.44207031 -8.46476563 15.73179687 -9 15 C-8.34 13.68 -7.68 12.36 -7 11 C-6.34 11 -5.68 11 -5 11 C-3.68 12.65 -2.36 14.3 -1 16 C-0.67 10.72 -0.34 5.44 0 0 Z " fill="#AAABAC" transform="translate(621,530)"/>
<path d="M0 0 C1.65322266 0.01740234 1.65322266 0.01740234 3.33984375 0.03515625 C4.99693359 0.04869141 4.99693359 0.04869141 6.6875 0.0625 C7.54214844 0.07410156 8.39679688 0.08570313 9.27734375 0.09765625 C9.60734375 1.08765625 9.93734375 2.07765625 10.27734375 3.09765625 C6.97734375 3.09765625 3.67734375 3.09765625 0.27734375 3.09765625 C0.60734375 6.06765625 0.93734375 9.03765625 1.27734375 12.09765625 C4.24734375 12.59265625 4.24734375 12.59265625 7.27734375 13.09765625 C6.94734375 14.08765625 6.61734375 15.07765625 6.27734375 16.09765625 C4.29734375 16.09765625 2.31734375 16.09765625 0.27734375 16.09765625 C0.27734375 19.06765625 0.27734375 22.03765625 0.27734375 25.09765625 C-1.37265625 24.76765625 -3.02265625 24.43765625 -4.72265625 24.09765625 C-4.58450096 20.2848368 -4.43585063 16.47249908 -4.28515625 12.66015625 C-4.24583984 11.57154297 -4.20652344 10.48292969 -4.16601562 9.36132812 C-4.12412109 8.32685547 -4.08222656 7.29238281 -4.0390625 6.2265625 C-4.00240479 5.2682251 -3.96574707 4.3098877 -3.92797852 3.32250977 C-3.62440845 0.03305197 -3.34991357 0.12015472 0 0 Z " fill="#B7B6B8" transform="translate(241.72265625,530.90234375)"/>
<path d="M0 0 C1.65 0 3.3 0 5 0 C5.08115993 3.06303578 5.14057409 6.12390815 5.1875 9.1875 C5.21263672 10.05181641 5.23777344 10.91613281 5.26367188 11.80664062 C5.3197835 16.68835222 5.25490183 20.067322 2 24 C-0.70879335 25.35439668 -3.00933268 25.06501451 -6 25 C-5 22 -5 22 -2.984375 20.91796875 C-0.14790145 18.17641656 -0.43855881 15.81144054 -0.29296875 11.98242188 C-0.27169922 10.66081055 -0.27169922 10.66081055 -0.25 9.3125 C-0.22035156 8.41982422 -0.19070313 7.52714844 -0.16015625 6.60742188 C-0.08948573 4.40485723 -0.03678061 2.20334869 0 0 Z " fill="#949699" transform="translate(393,530)"/>
<path d="M0 0 C0 0.66 0 1.32 0 2 C-1.65 2.33 -3.3 2.66 -5 3 C-5 3.99 -5 4.98 -5 6 C-5.83402344 6.06058594 -6.66804688 6.12117188 -7.52734375 6.18359375 C-8.65269531 6.26738281 -9.77804688 6.35117187 -10.9375 6.4375 C-12.03964844 6.51871094 -13.14179688 6.59992188 -14.27734375 6.68359375 C-24.67225429 7.56710661 -34.79232215 9.35666818 -45.046875 11.27148438 C-46.2534375 11.49255859 -47.46 11.71363281 -48.703125 11.94140625 C-49.79270508 12.14451416 -50.88228516 12.34762207 -52.00488281 12.55688477 C-54.72794662 12.95975082 -57.25376761 13.08625742 -60 13 C-60 12.34 -60 11.68 -60 11 C-59.39865234 10.90501221 -58.79730469 10.81002441 -58.17773438 10.7121582 C-41.22190411 8.01274645 -24.18471941 5.21412839 -7.5625 0.8515625 C-4 0 -4 0 0 0 Z " fill="#807F81" transform="translate(193,331)"/>
<path d="M0 0 C1.65 0 3.3 0 5 0 C5 8.58 5 17.16 5 26 C3.35 26 1.7 26 0 26 C0 17.42 0 8.84 0 0 Z " fill="#96969A" transform="translate(581,530)"/>
<path d="M0 0 C1.65 0 3.3 0 5 0 C5 8.58 5 17.16 5 26 C3.35 26 1.7 26 0 26 C0 17.42 0 8.84 0 0 Z " fill="#9C9CA0" transform="translate(354,530)"/>
<path d="M0 0 C2.475 0.495 2.475 0.495 5 1 C5 8.92 5 16.84 5 25 C3.35 25.33 1.7 25.66 0 26 C0 17.42 0 8.84 0 0 Z " fill="#99999B" transform="translate(520,530)"/>
<path d="M0 0 C4.62 0 9.24 0 14 0 C13.01 1.485 13.01 1.485 12 3 C9.03 3 6.06 3 3 3 C3 9.27 3 15.54 3 22 C5.64 22.33 8.28 22.66 11 23 C11 23.33 11 23.66 11 24 C7.37 24 3.74 24 0 24 C0 16.08 0 8.16 0 0 Z " fill="#BAB9BA" transform="translate(481,531)"/>
<path d="M0 0 C0.33 0 0.66 0 1 0 C1.28571429 7.42857143 1.28571429 7.42857143 -1 11 C-1.33 10.34 -1.66 9.68 -2 9 C-2.67675781 9.59296875 -3.35351562 10.1859375 -4.05078125 10.796875 C-7.25307186 13.1890497 -10.51734368 14.74665488 -14.1875 16.25 C-14.81591797 16.518125 -15.44433594 16.78625 -16.09179688 17.0625 C-20.71312978 19 -20.71312978 19 -23 19 C-23 18.34 -23 17.68 -23 17 C-22.34 17 -21.68 17 -21 17 C-21 16.34 -21 15.68 -21 15 C-20.34 15 -19.68 15 -19 15 C-18.67 14.01 -18.34 13.02 -18 12 C-15.234375 10.60546875 -15.234375 10.60546875 -11.75 9.1875 C-6.29376741 6.80039824 -3.2785137 4.91777056 0 0 Z " fill="#A6A5A7" transform="translate(536,105)"/>
<path d="M0 0 C0.66 0.33 1.32 0.66 2 1 C0.35 2.32 -1.3 3.64 -3 5 C-2.67 5.66 -2.34 6.32 -2 7 C-0.3603125 5.9790625 -0.3603125 5.9790625 1.3125 4.9375 C3.17578125 3.77734375 3.17578125 3.77734375 5 3 C5.99 3.33 6.98 3.66 8 4 C4.29553924 5.96572379 0.58578692 7.92124833 -3.125 9.875 C-4.17171875 10.43058594 -5.2184375 10.98617188 -6.296875 11.55859375 C-7.82441406 12.36103516 -7.82441406 12.36103516 -9.3828125 13.1796875 C-10.31496582 13.67194824 -11.24711914 14.16420898 -12.20751953 14.67138672 C-15.0848174 16.04035463 -17.95990082 17.05462722 -21 18 C-21 17.01 -21 16.02 -21 15 C-19.50292969 13.60546875 -19.50292969 13.60546875 -17.421875 12.1875 C-16.67292969 11.66929687 -15.92398437 11.15109375 -15.15234375 10.6171875 C-13.96318359 9.81667969 -13.96318359 9.81667969 -12.75 9 C-11.20290733 7.93781697 -9.65602563 6.87532659 -8.109375 5.8125 C-7.41811523 5.34457031 -6.72685547 4.87664062 -6.01464844 4.39453125 C-3.96965191 2.97899318 -1.98030355 1.50436505 0 0 Z " fill="#7D7D7F" transform="translate(446,347)"/>
<path d="M0 0 C3.96 0 7.92 0 12 0 C12 0.33 12 0.66 12 1 C7.545 1.495 7.545 1.495 3 2 C3.33 5.63 3.66 9.26 4 13 C6.31 13.66 8.62 14.32 11 15 C11 15.33 11 15.66 11 16 C8.69 16 6.38 16 4 16 C4 18.64 4 21.28 4 24 C2.68 24 1.36 24 0 24 C0 16.08 0 8.16 0 0 Z " fill="#C1C0C0" transform="translate(202,531)"/>
<path d="M0 0 C0.495 0.99 0.495 0.99 1 2 C-0.04800781 2.03738281 -1.09601562 2.07476562 -2.17578125 2.11328125 C-3.55472305 2.17894515 -4.93362771 2.24539235 -6.3125 2.3125 C-7.34793945 2.34633789 -7.34793945 2.34633789 -8.40429688 2.38085938 C-12.32621931 2.44542773 -12.32621931 2.44542773 -15.45898438 4.5 C-17.43452281 6.42295756 -18.51117072 6.41528974 -21.23046875 6.51171875 C-22.03291016 6.54716797 -22.83535156 6.58261719 -23.66210938 6.61914062 C-24.49548828 6.64169922 -25.32886719 6.66425781 -26.1875 6.6875 C-27.03248047 6.72166016 -27.87746094 6.75582031 -28.74804688 6.79101562 C-30.83156649 6.87341471 -32.91576216 6.93838645 -35 7 C-34 5 -34 5 -30.2734375 3.7109375 C-28.64457095 3.25140118 -27.01138051 2.80701704 -25.375 2.375 C-24.52574951 2.14917236 -23.67649902 1.92334473 -22.80151367 1.69067383 C-15.06999665 -0.22792262 -7.93392597 -0.53367215 0 0 Z " fill="#C1C1C4" transform="translate(554,163)"/>
<path d="M0 0 C1.65 0 3.3 0 5 0 C5.33 2.31 5.66 4.62 6 7 C5.01 7.495 5.01 7.495 4 8 C3.67 13.61 3.34 19.22 3 25 C2.01 24.67 1.02 24.34 0 24 C0 16.08 0 8.16 0 0 Z " fill="#B5B5B8" transform="translate(415,530)"/>
<path d="M0 0 C1.32 0 2.64 0 4 0 C4 8.58 4 17.16 4 26 C2.68 26 1.36 26 0 26 C-0.0544207 23.31222198 -0.09387266 20.62556788 -0.125 17.9375 C-0.14175781 17.18533203 -0.15851563 16.43316406 -0.17578125 15.65820312 C-0.21865121 10.70672291 0.41600625 6.69585549 2 2 C1.34 2 0.68 2 0 2 C0 1.34 0 0.68 0 0 Z " fill="#ADADAF" transform="translate(439,530)"/>
<path d="M0 0 C1.5625 1.5625 1.5625 1.5625 3 4 C2.93326623 7.80382483 2.88337293 10.08616594 0.1875 12.875 C-4.55248445 15.31270629 -8.74659385 15.08755677 -14 15 C-14 14.67 -14 14.34 -14 14 C-12.35 13.67 -10.7 13.34 -9 13 C-10.65 12.67 -12.3 12.34 -14 12 C-14 11.67 -14 11.34 -14 11 C-10.7 10.34 -7.4 9.68 -4 9 C-2.54685336 4.39467611 -2.54685336 4.39467611 -4 2 C-2.68 1.34 -1.36 0.68 0 0 Z " fill="#A2A2A3" transform="translate(220,533)"/>
<path d="M0 0 C4.95 0 9.9 0 15 0 C15 0.33 15 0.66 15 1 C10.38 1 5.76 1 1 1 C1 8.92 1 16.84 1 25 C4.96 24.505 4.96 24.505 9 24 C7.35 23.67 5.7 23.34 4 23 C4 16.73 4 10.46 4 4 C4.33 4 4.66 4 5 4 C5 9.94 5 15.88 5 22 C8.3 22 11.6 22 15 22 C14.34 23.32 13.68 24.64 13 26 C8.71 26 4.42 26 0 26 C0 17.42 0 8.84 0 0 Z " fill="#797A7F" transform="translate(480,530)"/>
<path d="M0 0 C2.47923801 -0.02685095 4.9581884 -0.04676547 7.4375 -0.0625 C8.14455078 -0.07087891 8.85160156 -0.07925781 9.58007812 -0.08789062 C11.38693559 -0.09653588 13.19387603 -0.05220011 15 0 C15.33 0.33 15.66 0.66 16 1 C17.51469448 1.23192865 19.03754562 1.41215238 20.5625 1.5625 C21.38878906 1.64628906 22.21507812 1.73007813 23.06640625 1.81640625 C23.70449219 1.87699219 24.34257813 1.93757812 25 2 C25 2.33 25 2.66 25 3 C19.03325384 4.32594359 13.07416385 4.0884587 7 4 C7 4.66 7 5.32 7 6 C1.22240116 6.12036664 -4.27959989 5.8320582 -10 5 C-10 4.67 -10 4.34 -10 4 C-5.05 4 -0.1 4 5 4 C5 3.34 5 2.68 5 2 C3.35 1.67 1.7 1.34 0 1 C0 0.67 0 0.34 0 0 Z " fill="#DDDDDD" transform="translate(660,166)"/>
<path d="M0 0 C-1.44253657 3.36591866 -3.33264727 5.51047079 -6 8 C-5.34 8.66 -4.68 9.32 -4 10 C-6.22747735 11.60655674 -8.45689442 13.21029679 -10.6875 14.8125 C-11.31333984 15.26431641 -11.93917969 15.71613281 -12.58398438 16.18164062 C-15.97604693 18.61469073 -19.37739216 20.91509568 -23 23 C-21.48968674 19.46183947 -19.42406644 17.16633853 -16.71875 14.453125 C-15.87699219 13.60878906 -15.03523438 12.76445312 -14.16796875 11.89453125 C-13.28753906 11.02183594 -12.40710938 10.14914063 -11.5 9.25 C-10.61957031 8.36183594 -9.73914063 7.47367188 -8.83203125 6.55859375 C-7.99027344 5.71941406 -7.14851563 4.88023437 -6.28125 4.015625 C-5.50845703 3.24508789 -4.73566406 2.47455078 -3.93945312 1.68066406 C-2 0 -2 0 0 0 Z " fill="#959598" transform="translate(400,131)"/>
<path d="M0 0 C1.65 0.33 3.3 0.66 5 1 C5.16500711 9.58036984 5.16500711 9.58036984 4 12 C-0.31297901 14.69561188 -5.09709597 14.19227075 -10 14 C-10 13.67 -10 13.34 -10 13 C-8.02 12.67 -6.04 12.34 -4 12 C-4.99 11.34 -5.98 10.68 -7 10 C-5.02 9.67 -3.04 9.34 -1 9 C-0.67 6.03 -0.34 3.06 0 0 Z " fill="#939398" transform="translate(660,542)"/>
<path d="M0 0 C0.33 0 0.66 0 1 0 C1.01417969 0.59167969 1.02835938 1.18335938 1.04296875 1.79296875 C1.30094249 6.06696607 1.57388218 8.42778464 4.1875 11.9375 C7.09166218 14.06721894 9.52637197 15.11139748 13 16 C12.67 16.66 12.34 17.32 12 18 C7.83978592 18.21153631 4.91002574 18.34125965 1 16.875 C-1 15 -1 15 -1.25 11.875 C-1.1675 10.92625 -1.085 9.9775 -1 9 C-1.33 8.67 -1.66 8.34 -2 8 C-2.04063832 6.33382885 -2.042721 4.66611905 -2 3 C-1.34 3 -0.68 3 0 3 C0 2.01 0 1.02 0 0 Z " fill="#A1A1A2" transform="translate(644,537)"/>
<path d="M0 0 C0 4.27840261 -2.28404432 5.82034457 -5 9 C-5.33 9.99 -5.66 10.98 -6 12 C-8.65234375 13.859375 -8.65234375 13.859375 -11.9375 15.75 C-13.01902344 16.38421875 -14.10054688 17.0184375 -15.21484375 17.671875 C-16.59349609 18.32929688 -16.59349609 18.32929688 -18 19 C-18.66 18.67 -19.32 18.34 -20 18 C-13.69911241 11.54829329 -7.27101388 5.35674253 0 0 Z " fill="#868687" transform="translate(488,346)"/>
<path d="M0 0 C1.79232337 0.30871122 3.58384321 0.62209064 5.375 0.9375 C6.87160156 1.19853516 6.87160156 1.19853516 8.3984375 1.46484375 C11 2 11 2 13 3 C12.79375 3.598125 12.5875 4.19625 12.375 4.8125 C11.69328085 7.28450846 11.69328085 7.28450846 14 10 C13.01 10.33 12.02 10.66 11 11 C9.79117904 13.00016466 9.79117904 13.00016466 9 15 C8.62875 13.783125 8.2575 12.56625 7.875 11.3125 C6.19609165 6.72997238 3.83534066 4.89781294 0 2 C0 1.34 0 0.68 0 0 Z " fill="#C1302B" transform="translate(402,46)"/>
<path d="M0 0 C2.475 0.495 2.475 0.495 5 1 C5 1.66 5 2.32 5 3 C6.27875 3.2475 7.5575 3.495 8.875 3.75 C12.78668267 4.72446512 12.78668267 4.72446512 14.5 6.9375 C15 9 15 9 15 12 C10.33442398 11.52083273 8.08557714 9.70886772 4.6875 6.5625 C3.80449219 5.75941406 2.92148437 4.95632812 2.01171875 4.12890625 C0 2 0 2 0 0 Z " fill="#4F1619" transform="translate(272,212)"/>
<path d="M0 0 C0.66 0 1.32 0 2 0 C1.88655624 2.1464753 1.75893655 4.29220592 1.625 6.4375 C1.55539062 7.63246094 1.48578125 8.82742187 1.4140625 10.05859375 C1.27742188 11.02925781 1.14078125 11.99992188 1 13 C0.01 13.495 0.01 13.495 -1 14 C-1.33 12.35 -1.66 10.7 -2 9 C-2.556875 9.804375 -3.11375 10.60875 -3.6875 11.4375 C-6.21864487 14.24228216 -7.32579134 14.69381595 -11 15 C-10.67 14.34 -10.34 13.68 -10 13 C-9.34 13 -8.68 13 -8 13 C-7.731875 12.43796875 -7.46375 11.8759375 -7.1875 11.296875 C-5.9196021 8.84449354 -4.51027658 6.56072317 -3 4.25 C-2.484375 3.45078125 -1.96875 2.6515625 -1.4375 1.828125 C-0.963125 1.22484375 -0.48875 0.6215625 0 0 Z " fill="#982120" transform="translate(400,154)"/>
<path d="M0 0 C0.99 0.33 1.98 0.66 3 1 C2.34 1 1.68 1 1 1 C1 3.31 1 5.62 1 8 C1.66 8 2.32 8 3 8 C3 13.28 3 18.56 3 24 C2.01 24 1.02 24 0 24 C0 16.08 0 8.16 0 0 Z " fill="#C2C1C3" transform="translate(310,531)"/>
<path d="M0 0 C0.33 0 0.66 0 1 0 C1 1.65 1 3.3 1 5 C1.66 5 2.32 5 3 5 C3 10.61 3 16.22 3 22 C2.01 22 1.02 22 0 22 C0 14.74 0 7.48 0 0 Z " fill="#BEBDBE" transform="translate(603,533)"/>
<path d="M0 0 C0 0.66 0 1.32 0 2 C-1.65 2.33 -3.3 2.66 -5 3 C-5 3.99 -5 4.98 -5 6 C-10.94 6.495 -10.94 6.495 -17 7 C-16.67 5.68 -16.34 4.36 -16 3 C-14.08487728 2.49411853 -12.16783078 1.99551609 -10.25 1.5 C-8.64898437 1.08234375 -8.64898437 1.08234375 -7.015625 0.65625 C-4 0 -4 0 0 0 Z " fill="#9E9E9F" transform="translate(193,331)"/>
<path d="M0 0 C1.32 0 2.64 0 4 0 C4 5.94 4 11.88 4 18 C3.67 18 3.34 18 3 18 C3 12.72 3 7.44 3 2 C2.34 2 1.68 2 1 2 C1 6.95 1 11.9 1 17 C0.34 17 -0.32 17 -1 17 C-1.02684679 14.35409986 -1.04676357 11.70846904 -1.0625 9.0625 C-1.07087891 8.30775391 -1.07925781 7.55300781 -1.08789062 6.77539062 C-1.09652441 4.85005687 -1.05224333 2.92464419 -1 1 C-0.67 0.67 -0.34 0.34 0 0 Z " fill="#8B8B8E" transform="translate(376,530)"/>
<path d="M0 0 C0.33 0 0.66 0 1 0 C1.28571429 7.42857143 1.28571429 7.42857143 -1 11 C-1.33 10.34 -1.66 9.68 -2 9 C-2.78375 9.66 -3.5675 10.32 -4.375 11 C-7 13 -7 13 -9 13 C-9 12.34 -9 11.68 -9 11 C-8.34 11 -7.68 11 -7 11 C-7 10.34 -7 9.68 -7 9 C-7.66 8.67 -8.32 8.34 -9 8 C-7.88625 7.4121875 -7.88625 7.4121875 -6.75 6.8125 C-3.80366057 4.87059447 -2.11453608 2.79420839 0 0 Z " fill="#A5A3A4" transform="translate(536,105)"/>
<path d="M0 0 C0.99 0 1.98 0 3 0 C3 5.94 3 11.88 3 18 C2.01 17.67 1.02 17.34 0 17 C0 11.39 0 5.78 0 0 Z " fill="#C5C4C3" transform="translate(394,531)"/>
<path d="M0 0 C-1 3 -1 3 -3.21484375 4.38671875 C-4.56255859 5.03060547 -4.56255859 5.03060547 -5.9375 5.6875 C-6.83339844 6.12449219 -7.72929688 6.56148438 -8.65234375 7.01171875 C-11 8 -11 8 -13 8 C-12.814375 7.38125 -12.62875 6.7625 -12.4375 6.125 C-11.76313824 3.95839822 -11.76313824 3.95839822 -13 2 C-8.46298506 0.54815522 -4.81938524 -0.23509196 0 0 Z " fill="#AFB0AF" transform="translate(594,259)"/>
<path d="M0 0 C-0.125 1.875 -0.125 1.875 -1 4 C-4.73397847 5.69726294 -7.92157346 6.23990744 -12 6 C-11.67 4.35 -11.34 2.7 -11 1 C-7.32589215 -0.17571451 -3.83070817 -0.07366746 0 0 Z " fill="#88888A" transform="translate(295,331)"/>
<path d="M0 0 C0.99 0 1.98 0 3 0 C3 5.28 3 10.56 3 16 C2.01 16.33 1.02 16.66 0 17 C0 11.39 0 5.78 0 0 Z " fill="#BEBDBD" transform="translate(561,531)"/>
<path d="M0 0 C1.32 0.33 2.64 0.66 4 1 C3.67 1.33 3.34 1.66 3 2 C3 3.134375 3 4.26875 3 5.4375 C3 9 3 9 2 11 C1.76970044 13.37123246 1.58880058 15.74741943 1.4375 18.125 C1.35371094 19.40632812 1.26992188 20.68765625 1.18359375 22.0078125 C1.09271484 23.48894531 1.09271484 23.48894531 1 25 C1.99 25.33 2.98 25.66 4 26 C2.68 26 1.36 26 0 26 C0 17.42 0 8.84 0 0 Z " fill="#A0A1A2" transform="translate(520,530)"/>
<path d="M0 0 C10.55808656 -0.55353075 10.55808656 -0.55353075 15 3 C14.01 4.485 14.01 4.485 13 6 C9.7 5.34 6.4 4.68 3 4 C3.66 3.34 4.32 2.68 5 2 C3.35 1.67 1.7 1.34 0 1 C0 0.67 0 0.34 0 0 Z " fill="#97979A" transform="translate(650,530)"/>
<path d="M0 0 C0.33 0.66 0.66 1.32 1 2 C-0.43359375 4.6015625 -0.43359375 4.6015625 -2.4375 7.625 C-3.09621094 8.62789063 -3.75492187 9.63078125 -4.43359375 10.6640625 C-4.95050781 11.43492187 -5.46742188 12.20578125 -6 13 C-5.34 13.33 -4.68 13.66 -4 14 C-6.31 15.65 -8.62 17.3 -11 19 C-11.66 18.67 -12.32 18.34 -13 18 C-12.22914063 16.95199219 -11.45828125 15.90398437 -10.6640625 14.82421875 C-9.65100715 13.44533786 -8.63798822 12.06643021 -7.625 10.6875 C-7.11710937 9.99720703 -6.60921875 9.30691406 -6.0859375 8.59570312 C-5.59609375 7.92861328 -5.10625 7.26152344 -4.6015625 6.57421875 C-4.15119629 5.96151123 -3.70083008 5.34880371 -3.23681641 4.7175293 C-2.12239357 3.16996423 -1.05784918 1.58677377 0 0 Z " fill="#7B7B7B" transform="translate(502,357)"/>
<path d="M0 0 C0 0.99 0 1.98 0 3 C2.475 3.495 2.475 3.495 5 4 C5 4.33 5 4.66 5 5 C-1.7857936 4.45136137 -8.35009036 3.45732062 -15 2 C-15 1.67 -15 1.34 -15 1 C-9.9752761 0.37470103 -5.07471573 -0.13012092 0 0 Z " fill="#747474" transform="translate(117,345)"/>
<path d="M0 0 C2.6486859 3.19668988 4.93992341 6.39486597 7 10 C6.01 10 5.02 10 4 10 C3.34 10.66 2.68 11.32 2 12 C-0.99481865 7.50777202 -0.99481865 7.50777202 -2 5 C-1.25 2.0625 -1.25 2.0625 0 0 Z " fill="#9B9CA0" transform="translate(317,537)"/>
<path d="M0 0 C1.32 1.65 2.64 3.3 4 5 C3.67 5.66 3.34 6.32 3 7 C2.01 6.34 1.02 5.68 0 5 C-1.52106634 8.04213267 -1.37429338 11.28047572 -1.5625 14.625 C-1.60568359 15.33140625 -1.64886719 16.0378125 -1.69335938 16.765625 C-1.79944751 18.51018537 -1.90022889 20.25506697 -2 22 C-3.65 21.67 -5.3 21.34 -7 21 C-6.34 20.67 -5.68 20.34 -5 20 C-4.34 20.33 -3.68 20.66 -3 21 C-3 15.39 -3 9.78 -3 4 C-2.01 3.67 -1.02 3.34 0 3 C0 2.01 0 1.02 0 0 Z " fill="#96979B" transform="translate(421,534)"/>
<path d="M0 0 C0.33 0.99 0.66 1.98 1 3 C1.66 3.66 2.32 4.32 3 5 C-1.92737019 6.97094808 -5.78020872 7.1799928 -11 7 C-11 6.67 -11 6.34 -11 6 C-9.35 5.67 -7.7 5.34 -6 5 C-7.65 4.67 -9.3 4.34 -11 4 C-11 3.67 -11 3.34 -11 3 C-10.28972656 2.86722656 -9.57945312 2.73445312 -8.84765625 2.59765625 C-7.92855469 2.42105469 -7.00945312 2.24445312 -6.0625 2.0625 C-4.68771484 1.80146484 -4.68771484 1.80146484 -3.28515625 1.53515625 C-1.04710156 1.22285012 -1.04710156 1.22285012 0 0 Z " fill="#939396" transform="translate(217,541)"/>
<path d="M0 0 C-1.44253657 3.36591866 -3.33264727 5.51047079 -6 8 C-5.34 8.66 -4.68 9.32 -4 10 C-5.8125 11.5625 -5.8125 11.5625 -8 13 C-8.99 12.67 -9.98 12.34 -11 12 C-9.15745709 7.7007332 -5.41279402 0 0 0 Z " fill="#88888A" transform="translate(400,131)"/>
<path d="M0 0 C1.33981486 0.3062434 2.67511887 0.63451555 4 1 C2.4050992 2.19991599 0.79873853 3.38461318 -0.8125 4.5625 C-1.70582031 5.22378906 -2.59914063 5.88507813 -3.51953125 6.56640625 C-4.33808594 7.03949219 -5.15664063 7.51257813 -6 8 C-6.99 7.67 -7.98 7.34 -9 7 C-8.07347299 5.82460004 -7.13336613 4.65989423 -6.1875 3.5 C-5.66542969 2.8503125 -5.14335937 2.200625 -4.60546875 1.53125 C-3 0 -3 0 0 0 Z " fill="#8D8D8F" transform="translate(462,314)"/>
<path d="M0 0 C2.1385485 2.1385485 2.42655063 3.13275314 3 6 C-1.625 9 -1.625 9 -5 9 C-5.33 7.68 -5.66 6.36 -6 5 C-5.195625 4.54625 -4.39125 4.0925 -3.5625 3.625 C-0.91143428 2.25274335 -0.91143428 2.25274335 0 0 Z " fill="#97979C" transform="translate(499,546)"/>
<path d="M0 0 C0.33 0 0.66 0 1 0 C1 5.94 1 11.88 1 18 C4.3 18 7.6 18 11 18 C10.67 18.99 10.34 19.98 10 21 C6.7 20.34 3.4 19.68 0 19 C0 12.73 0 6.46 0 0 Z " fill="#838488" transform="translate(484,534)"/>
<path d="M0 0 C0.66 0 1.32 0 2 0 C3.38938077 1.96147874 4.7260411 3.96166576 6 6 C5.01 6 4.02 6 3 6 C2.34 5.01 1.68 4.02 1 3 C0.67 8.28 0.34 13.56 0 19 C-1.32 18.67 -2.64 18.34 -4 18 C-3.01 18 -2.02 18 -1 18 C-1.01160156 16.78441406 -1.02320313 15.56882812 -1.03515625 14.31640625 C-1.04453278 12.73177236 -1.05363313 11.14713682 -1.0625 9.5625 C-1.07087891 8.76005859 -1.07925781 7.95761719 -1.08789062 7.13085938 C-1.0965143 5.08704779 -1.0522815 3.04316098 -1 1 C-0.67 0.67 -0.34 0.34 0 0 Z " fill="#939296" transform="translate(607,537)"/>
<path d="M0 0 C-1.75 5.75 -1.75 5.75 -4 8 C-4.33 7.34 -4.66 6.68 -5 6 C-7.31 7.98 -9.62 9.96 -12 12 C-9.69281901 7.38563803 -5.92914637 0 0 0 Z " fill="#C53129" transform="translate(272,166)"/>
<path d="M0 0 C0 4.27840261 -2.28404432 5.82034457 -5 9 C-5.33 9.99 -5.66 10.98 -6 12 C-6.66 12 -7.32 12 -8 12 C-8.70703125 10.23046875 -8.70703125 10.23046875 -9 8 C-7.63671875 6.11328125 -7.63671875 6.11328125 -5.6875 4.3125 C-5.05199219 3.71050781 -4.41648437 3.10851562 -3.76171875 2.48828125 C-2 1 -2 1 0 0 Z " fill="#7A7A7B" transform="translate(488,346)"/>
<path d="M0 0 C1.65 0 3.3 0 5 0 C5.125 2.375 5.125 2.375 5 5 C4.34 5.66 3.68 6.32 3 7 C2.01 7 1.02 7 0 7 C-1.125 2.25 -1.125 2.25 0 0 Z " fill="#B5B6B8" transform="translate(427,546)"/>
<path d="M0 0 C4.29 0 8.58 0 13 0 C12.67 1.32 12.34 2.64 12 4 C8.04 4 4.08 4 0 4 C0 3.67 0 3.34 0 3 C3.3 3 6.6 3 10 3 C10 2.34 10 1.68 10 1 C6.7 1 3.4 1 0 1 C0 0.67 0 0.34 0 0 Z " fill="#828388" transform="translate(279,541)"/>
<path d="M0 0 C1.625 0.875 1.625 0.875 2.625 3.875 C-3.315 4.37 -3.315 4.37 -9.375 4.875 C-9.375 4.215 -9.375 3.555 -9.375 2.875 C-3.06000949 -0.16105313 -3.06000949 -0.16105313 0 0 Z " fill="#8C8C90" transform="translate(514.375,127.125)"/>
<path d="M0 0 C0.99 0.33 1.98 0.66 3 1 C0.03 3.97 -2.94 6.94 -6 10 C-6.99 9.67 -7.98 9.34 -9 9 C-6.03 6.03 -3.06 3.06 0 0 Z " fill="#ABAAAC" transform="translate(505,295)"/>
<path d="M0 0 C0.66 0.33 1.32 0.66 2 1 C-7.22551253 10 -7.22551253 10 -13 10 C-9.28249221 5.79759989 -4.68339021 3.00217321 0 0 Z " fill="#B41C1B" transform="translate(345,133)"/>
<path d="M0 0 C4 4 4 4 4.390625 6.359375 C4.34421875 7.14828125 4.2978125 7.9371875 4.25 8.75 C4.21390625 9.54921875 4.1778125 10.3484375 4.140625 11.171875 C4.09421875 11.77515625 4.0478125 12.3784375 4 13 C3.34 13 2.68 13 2 13 C1.34 8.71 0.68 4.42 0 0 Z " fill="#8E8C8E" transform="translate(433,146)"/>
<path d="M0 0 C0.66 0.33 1.32 0.66 2 1 C1.67 2.98 1.34 4.96 1 7 C-1.64 6.34 -4.28 5.68 -7 5 C-7 6.65 -7 8.3 -7 10 C-7.33 10 -7.66 10 -8 10 C-8 8.02 -8 6.04 -8 4 C-6.02 4 -4.04 4 -2 4 C-1.34 2.68 -0.68 1.36 0 0 Z " fill="#7C7D82" transform="translate(250,543)"/>
<path d="M0 0 C0.66 0.33 1.32 0.66 2 1 C-1 5 -4 9 -7 13 C-7.66 12.67 -8.32 12.34 -9 12 C-6.03 8.04 -3.06 4.08 0 0 Z " fill="#B73026" transform="translate(253,184)"/>
<path d="M0 0 C2.79872437 2.52788007 4.45773019 4.20411134 5 8 C3.35 7.67 1.7 7.34 0 7 C-1.04449911 3.86650268 -0.93423645 3.01031744 0 0 Z " fill="#96989C" transform="translate(254,548)"/>
<path d="M0 0 C-0.33 0.99 -0.66 1.98 -1 3 C-1.99 2.67 -2.98 2.34 -4 2 C-4 2.66 -4 3.32 -4 4 C-7 6 -7 6 -9.1875 5.625 C-9.785625 5.41875 -10.38375 5.2125 -11 5 C-4.87096774 0 -4.87096774 0 0 0 Z " fill="#E4E5E5" transform="translate(463,248)"/>
<path d="M0 0 C2 4 2 4 2 6 C0.25 7.0625 0.25 7.0625 -2 8 C-3.32 7.67 -4.64 7.34 -6 7 C-4.02 4.69 -2.04 2.38 0 0 Z " fill="#969597" transform="translate(485,125)"/>
<path d="M0 0 C0.66 0 1.32 0 2 0 C2.66 2.31 3.32 4.62 4 7 C2.35 7.66 0.7 8.32 -1 9 C-0.67 6.03 -0.34 3.06 0 0 Z " fill="#B3B2B4" transform="translate(539,73)"/>
<path d="M0 0 C0.66 0 1.32 0 2 0 C3.10844919 3.32534757 2.84454356 5.62182575 2 9 C1.01 8.67 0.02 8.34 -1 8 C-1.04241723 5.66705225 -1.04092937 3.33297433 -1 1 C-0.67 0.67 -0.34 0.34 0 0 Z " fill="#B0B0B3" transform="translate(252,543)"/>
<path d="M0 0 C0.99 0 1.98 0 3 0 C3.33 1.65 3.66 3.3 4 5 C3.01 5.66 2.02 6.32 1 7 C-0.0625 4.625 -0.0625 4.625 -1 2 C-0.67 1.34 -0.34 0.68 0 0 Z " fill="#B8B7B8" transform="translate(554,543)"/>
<path d="M0 0 C0.99 0.33 1.98 0.66 3 1 C0.36 3.64 -2.28 6.28 -5 9 C-5.33 8.01 -5.66 7.02 -6 6 C-4.02 4.02 -2.04 2.04 0 0 Z " fill="#DADADB" transform="translate(333,249)"/>
<path d="M0 0 C5.61 0.33 11.22 0.66 17 1 C17 1.33 17 1.66 17 2 C11.555 2.495 11.555 2.495 6 3 C6 2.34 6 1.68 6 1 C4.02 1 2.04 1 0 1 C0 0.67 0 0.34 0 0 Z " fill="#ECEBEA" transform="translate(668,167)"/>
<path d="M0 0 C0.33 0.66 0.66 1.32 1 2 C-0.62339805 3.70884005 -2.29319053 5.37446717 -4 7 C-4.66 7 -5.32 7 -6 7 C-6 6.34 -6 5.68 -6 5 C-5.34 5 -4.68 5 -4 5 C-4 4.34 -4 3.68 -4 3 C-4.66 2.67 -5.32 2.34 -6 2 C-4.02 1.34 -2.04 0.68 0 0 Z " fill="#919092" transform="translate(533,111)"/>
<path d="M0 0 C6.75 0.75 6.75 0.75 9 3 C6.11788698 3.96070434 4.30149956 4.10581883 1.3125 4.0625 C0.10013672 4.04896484 0.10013672 4.04896484 -1.13671875 4.03515625 C-2.05904297 4.01775391 -2.05904297 4.01775391 -3 4 C-3 3.67 -3 3.34 -3 3 C-1.02 2.67 0.96 2.34 3 2 C2.01 1.34 1.02 0.68 0 0 Z " fill="#7D7E85" transform="translate(653,552)"/>
<path d="M0 0 C1.23367942 2.46735884 1 4.26809601 1 7 C1.33 7.66 1.66 8.32 2 9 C1.0625 11.125 1.0625 11.125 0 13 C-1.80017973 8.55249714 -2.19432474 5.66872399 -1 1 C-0.67 0.67 -0.34 0.34 0 0 Z " fill="#979699" transform="translate(642,538)"/>
<path d="M0 0 C2.875 -0.125 2.875 -0.125 6 0 C6.66 0.66 7.32 1.32 8 2 C3.56923077 4.09230769 3.56923077 4.09230769 0.6875 3.625 C0.130625 3.41875 -0.42625 3.2125 -1 3 C-0.67 2.01 -0.34 1.02 0 0 Z " fill="#AFADAE" transform="translate(649,531)"/>
<path d="M0 0 C1 3 1 3 0.25 5.125 C-1 7 -1 7 -4 8 C-4.66 7.34 -5.32 6.68 -6 6 C-4.02 4.02 -2.04 2.04 0 0 Z M-8 7 C-6 8 -6 8 -6 8 Z " fill="#9A9A9B" transform="translate(484,315)"/>
<path d="M0 0 C3 3.625 3 3.625 3 7 C1.35 6.67 -0.3 6.34 -2 6 C-2 3 -2 3 0 0 Z " fill="#621717" transform="translate(284,217)"/>
<path d="M0 0 C0.66 0.33 1.32 0.66 2 1 C0.6875 3 0.6875 3 -1 5 C-1.99 5 -2.98 5 -4 5 C-4.66 6.32 -5.32 7.64 -6 9 C-6.66 8.67 -7.32 8.34 -8 8 C-5.33333333 5.33333333 -2.66666667 2.66666667 0 0 Z " fill="#BBB9BB" transform="translate(438,100)"/>
<path d="M0 0 C-0.33 0.66 -0.66 1.32 -1 2 C-3.64 2 -6.28 2 -9 2 C-9.33 1.34 -9.66 0.68 -10 0 C-6.7169902 -1.6415049 -3.57454967 -0.51888624 0 0 Z " fill="#B0B1B3" transform="translate(657,553)"/>
<path d="M0 0 C0.33 0 0.66 0 1 0 C1 3.63 1 7.26 1 11 C-2 8 -2 8 -2.1875 5.3125 C-2.125625 4.549375 -2.06375 3.78625 -2 3 C-1.34 3 -0.68 3 0 3 C0 2.01 0 1.02 0 0 Z " fill="#ADACAD" transform="translate(644,537)"/>
<path d="M0 0 C0.66 1.32 1.32 2.64 2 4 C-0.64 4.99 -3.28 5.98 -6 7 C-6 6.01 -6 5.02 -6 4 C-3 1.8125 -3 1.8125 0 0 Z " fill="#747478" transform="translate(431,358)"/>
<path d="M0 0 C0.33 0 0.66 0 1 0 C1.33 5.94 1.66 11.88 2 18 C1.01 17.67 0.02 17.34 -1 17 C-0.67 11.39 -0.34 5.78 0 0 Z " fill="#B8B7B6" transform="translate(378,532)"/>
<path d="M0 0 C-0.33 0.99 -0.66 1.98 -1 3 C-3.0625 3.6875 -3.0625 3.6875 -5 4 C-5 3.34 -5 2.68 -5 2 C-6.65 2 -8.3 2 -10 2 C-6.5980513 -0.09350689 -3.94727588 -0.17942163 0 0 Z " fill="#939496" transform="translate(594,259)"/>
<path d="M0 0 C0.99 0 1.98 0 3 0 C3 1.65 3 3.3 3 5 C1 6 -1 7 -3 8 C-2.690625 7.236875 -2.38125 6.47375 -2.0625 5.6875 C-1.32106407 3.81210323 -0.63771783 1.91315348 0 0 Z " fill="#A51E1B" transform="translate(333,176)"/>
<path d="M0 0 C0 3 0 3 -1 6 C-4.0625 7.1875 -4.0625 7.1875 -7 8 C-6.02133662 6.85373678 -5.04205413 5.70800212 -4.0625 4.5625 C-3.51722656 3.92441406 -2.97195313 3.28632813 -2.41015625 2.62890625 C-1.63204305 1.73008851 -0.84063472 0.84063472 0 0 Z " fill="#7A7B7E" transform="translate(475,357)"/>
<path d="M0 0 C0.66 0.33 1.32 0.66 2 1 C1.34 2.32 0.68 3.64 0 5 C-2.97 4.505 -2.97 4.505 -6 4 C-4.03617993 2.49440461 -2.21736634 1.10868317 0 0 Z " fill="#B3B4B7" transform="translate(485,230)"/>
<path d="M0 0 C0.33 0.99 0.66 1.98 1 3 C-0.6875 4.125 -0.6875 4.125 -3 5 C-5.75 4.125 -5.75 4.125 -8 3 C-5.22569089 1.15046059 -3.35957737 0 0 0 Z " fill="#B1B1B5" transform="translate(464,193)"/>
<path d="M0 0 C0.99 0 1.98 0 3 0 C3 0.66 3 1.32 3 2 C3.99 2.66 4.98 3.32 6 4 C3.03 4 0.06 4 -3 4 C-2.67 3.34 -2.34 2.68 -2 2 C-1.34 2 -0.68 2 0 2 C0 1.34 0 0.68 0 0 Z " fill="#939599" transform="translate(385,552)"/>
<path d="M0 0 C0.99 0.99 1.98 1.98 3 3 C2.67 3.99 2.34 4.98 2 6 C1.01 6.33 0.02 6.66 -1 7 C-1.625 5.1875 -1.625 5.1875 -2 3 C-1.34 2.01 -0.68 1.02 0 0 Z " fill="#A2A2A4" transform="translate(317,537)"/>
<path d="M0 0 C0.66 0.66 1.32 1.32 2 2 C-0.25 2.6875 -0.25 2.6875 -3 3 C-5.3125 1.5625 -5.3125 1.5625 -7 0 C-3.85179059 -1.04940314 -3.00659136 -1.066855 0 0 Z " fill="#78787B" transform="translate(303,329)"/>
<path d="M0 0 C0 0.99 0 1.98 0 3 C-3 5.1875 -3 5.1875 -6 7 C-6.66 6.67 -7.32 6.34 -8 6 C-5.36 4.02 -2.72 2.04 0 0 Z " fill="#A3A4A7" transform="translate(498,279)"/>
<path d="M0 0 C0.33 0.99 0.66 1.98 1 3 C-0.98 4.98 -2.96 6.96 -5 9 C-5.66 8.67 -6.32 8.34 -7 8 C-4.69 5.36 -2.38 2.72 0 0 Z " fill="#B43129" transform="translate(309,139)"/>
<path d="M0 0 C0.66 0.99 1.32 1.98 2 3 C1.67 3.66 1.34 4.32 1 5 C1.33 5.33 1.66 5.66 2 6 C1.67 6.99 1.34 7.98 1 9 C0.01 9.33 -0.98 9.66 -2 10 C-1.34 6.7 -0.68 3.4 0 0 Z " fill="#949395" transform="translate(495,101)"/>
<path d="M0 0 C0.33 0 0.66 0 1 0 C1 2.64 1 5.28 1 8 C-0.32 7.01 -1.64 6.02 -3 5 C-2.03114628 3.31503702 -1.03013277 1.64821244 0 0 Z " fill="#A0A0A3" transform="translate(329,537)"/>
<path d="M0 0 C0.66 0.66 1.32 1.32 2 2 C1.96712417 4.72869407 1.43602229 7.2966618 1 10 C-1.56687367 6.1496895 -0.83288724 4.41430237 0 0 Z " fill="#B5B5B8" transform="translate(501,541)"/>
<path d="M0 0 C0.66 0 1.32 0 2 0 C1.6875 2.875 1.6875 2.875 1 6 C0.01 6.66 -0.98 7.32 -2 8 C-2.125 5.125 -2.125 5.125 -2 2 C-1.34 1.34 -0.68 0.68 0 0 Z " fill="#A2A2A4" transform="translate(502,537)"/>
<path d="M0 0 C2.86724686 0.57344937 3.8614515 0.8614515 6 3 C5 4 5 4 2.4375 4.0625 C1.2309375 4.0315625 1.2309375 4.0315625 0 4 C0 2.68 0 1.36 0 0 Z " fill="#908F91" transform="translate(283,333)"/>
<path d="M0 0 C0.33 0.99 0.66 1.98 1 3 C0.01 3.33 -0.98 3.66 -2 4 C-2.33 5.65 -2.66 7.3 -3 9 C-3.93423645 5.98968256 -4.04449911 5.13349732 -3 2 C-2.01 1.34 -1.02 0.68 0 0 Z " fill="#7C7A7D" transform="translate(522,321)"/>
<path d="M0 0 C2.97 0 5.94 0 9 0 C8.67 0.99 8.34 1.98 8 3 C7.01 3.33 6.02 3.66 5 4 C4.67 3.34 4.34 2.68 4 2 C2.68 1.34 1.36 0.68 0 0 Z " fill="#CDCDCD" transform="translate(631,226)"/>
</svg>
